<svg width="24" height="24" viewBox="0 0 24 24" fill="none" xmlns="http://www.w3.org/2000/svg">
<path d="M5 5H9V3H5V5ZM9 5V9H11V5H9ZM9 9H5V11H9V9ZM5 9V5H3V9H5ZM5 9H5H3C3 10.1046 3.89543 11 5 11V9ZM9 9V11C10.1046 11 11 10.1046 11 9H9ZM9 5H11C11 3.89543 10.1046 3 9 3V5ZM5 3C3.89543 3 3 3.89543 3 5H5V5V3ZM5 15H9V13H5V15ZM9 15V19H11V15H9ZM9 19H5V21H9V19ZM5 19V15H3V19H5ZM5 19H5H3C3 20.1046 3.89543 21 5 21V19ZM9 19V21C10.1046 21 11 20.1046 11 19H9ZM9 15H11C11 13.8954 10.1046 13 9 13V15ZM5 13C3.89543 13 3 13.8954 3 15H5V13ZM15 5H19V3H15V5ZM19 5V9H21V5H19ZM19 9H15V11H19V9ZM15 9V5H13V9H15ZM15 9H13C13 10.1046 13.8954 11 15 11V9ZM19 9V11C20.1046 11 21 10.1046 21 9H19ZM19 5H21C21 3.89543 20.1046 3 19 3V5ZM15 3C13.8954 3 13 3.89543 13 5H15V5V3ZM15 15H19V13H15V15ZM19 15V19H21V15H19ZM19 19H15V21H19V19ZM15 19V15H13V19H15ZM15 19H13C13 20.1046 13.8954 21 15 21V19ZM19 19V21C20.1046 21 21 20.1046 21 19H19ZM19 15H21C21 13.8954 20.1046 13 19 13V15ZM15 13C13.8954 13 13 13.8954 13 15H15V13Z" fill="currentColor"/>
</svg>
