<svg width="24" height="24" viewBox="0 0 24 24" fill="none" xmlns="http://www.w3.org/2000/svg">
<path d="M7.70015 6.35982L3.53349 11.3598C3.22445 11.7307 3.22445 12.2693 3.53349 12.6402L7.70015 17.6402C7.89015 17.8682 8.1716 18 8.46838 18H18C19.6569 18 21 16.6569 21 15V9C21 7.34315 19.6569 6 18 6H8.46837C8.1716 6 7.89015 6.13182 7.70015 6.35982Z" stroke="currentColor" stroke-width="2" stroke-linecap="round" stroke-linejoin="round"/>
<path d="M15.7071 10.7071C16.0976 10.3166 16.0976 9.68342 15.7071 9.29289C15.3166 8.90237 14.6834 8.90237 14.2929 9.29289L15.7071 10.7071ZM10.2929 13.2929C9.90237 13.6834 9.90237 14.3166 10.2929 14.7071C10.6834 15.0976 11.3166 15.0976 11.7071 14.7071L10.2929 13.2929ZM11.7071 9.29289C11.3166 8.90237 10.6834 8.90237 10.2929 9.29289C9.90237 9.68342 9.90237 10.3166 10.2929 10.7071L11.7071 9.29289ZM14.2929 14.7071C14.6834 15.0976 15.3166 15.0976 15.7071 14.7071C16.0976 14.3166 16.0976 13.6834 15.7071 13.2929L14.2929 14.7071ZM14.2929 9.29289L12.2929 11.2929L13.7071 12.7071L15.7071 10.7071L14.2929 9.29289ZM12.2929 11.2929L10.2929 13.2929L11.7071 14.7071L13.7071 12.7071L12.2929 11.2929ZM13.7071 11.2929L11.7071 9.29289L10.2929 10.7071L12.2929 12.7071L13.7071 11.2929ZM12.2929 12.7071L14.2929 14.7071L15.7071 13.2929L13.7071 11.2929L12.2929 12.7071Z" fill="currentColor"/>
</svg>
