<svg width="97" height="97" viewBox="0 0 97 97" fill="none" xmlns="http://www.w3.org/2000/svg">
<path fill-rule="evenodd" clip-rule="evenodd" d="M4.71531 15.245C3.48593 16.4744 3.48593 18.4676 4.71531 19.697C5.9447 20.9264 7.93793 20.9264 9.16731 19.697L11.5497 17.3147C11.6529 17.4403 11.7679 17.5592 11.8946 17.67L17.7933 22.8287C18.8236 23.7297 20.376 23.6778 21.3439 22.71C22.3354 21.7184 22.3622 20.1193 21.4043 19.0951L16.0517 13.3718C15.9602 13.274 15.8639 13.1838 15.7633 13.1011L18.0713 10.793C19.3007 9.56365 19.3007 7.57043 18.0713 6.34104C16.8419 5.11166 14.8487 5.11166 13.6193 6.34105L4.71531 15.245Z" fill="#1B1B1B"/>
<path d="M76.6173 23.25C78.123 22.3807 80.0483 22.8966 80.9176 24.4022L87.2137 35.3074C88.083 36.813 87.5671 38.7383 86.0615 39.6077C84.5558 40.477 82.6305 39.9611 81.7612 38.4554L75.4651 27.5503C74.5958 26.0446 75.1117 24.1193 76.6173 23.25Z" fill="#1B1B1B"/>
<path d="M80.9763 31.6992C81.8225 33.165 81.2863 35.0404 79.793 35.8372L72.8793 39.5261C71.6422 40.1863 70.1044 39.7465 69.4032 38.5321C68.7189 37.3468 69.0705 35.8338 70.2075 35.0718L76.7172 30.7093C78.1559 29.745 80.1103 30.1993 80.9763 31.6992Z" fill="#1B1B1B"/>
<path fill-rule="evenodd" clip-rule="evenodd" d="M85.6453 43.9764C86.2427 44.0968 86.8055 44.3499 87.2919 44.717C87.7764 45.0864 88.1715 45.5601 88.4478 46.1031C88.7242 46.646 88.8748 47.2442 88.8884 47.8533C88.9045 48.108 88.9167 48.302 88.9167 48.5C88.9167 70.7857 70.7857 88.9167 48.5 88.9167C26.2142 88.9167 8.08332 70.7857 8.08332 48.5C8.04397 38.4474 11.7688 28.7441 18.5248 21.3C25.2807 13.8559 34.5783 9.21023 44.5877 8.27733C45.2311 8.21502 45.8802 8.30798 46.4803 8.54841C47.0805 8.78885 47.6141 9.16974 48.0366 9.65911C48.4591 10.1485 48.758 10.7321 48.9082 11.3609C49.0585 11.9897 49.0557 12.6453 48.9001 13.2728C48.6253 14.3722 48.5 15.2896 48.5 16.1667C48.5 22.8516 53.9401 28.2917 60.625 28.2917C61.6644 28.2734 62.6969 28.1199 63.6967 27.835C64.3078 27.6722 64.9486 27.6554 65.5674 27.7859C66.1861 27.9164 66.7656 28.1906 67.2589 28.5864C67.7522 28.9821 68.1455 29.4883 68.4071 30.0641C68.6687 30.6398 68.7913 31.269 68.7649 31.9009C68.7609 32.0383 68.7164 32.4505 68.6962 32.588C68.7083 39.0182 74.1484 44.4583 80.8333 44.4583C81.8502 44.4422 82.8608 44.2955 83.8403 44.0218C84.431 43.8716 85.0478 43.8561 85.6453 43.9764Z" fill="#05C46B"/>
<path d="M87.2919 44.717L88.2776 43.4242L88.2713 43.4194L87.2919 44.717ZM85.6453 43.9764L85.3243 45.5701H85.3243L85.6453 43.9764ZM88.4478 46.1031L86.999 46.8406L86.999 46.8406L88.4478 46.1031ZM88.8884 47.8533L87.2631 47.8896L87.2638 47.923L87.2659 47.9563L88.8884 47.8533ZM8.08332 48.5H9.70903L9.709 48.4936L8.08332 48.5ZM18.5248 21.3L19.7286 22.3926L18.5248 21.3ZM44.5877 8.27733L44.7385 9.89603L44.7444 9.89546L44.5877 8.27733ZM46.4803 8.54841L45.8757 10.0575L46.4803 8.54841ZM48.0366 9.65911L49.2672 8.59678V8.59678L48.0366 9.65911ZM48.9082 11.3609L50.4894 10.983V10.983L48.9082 11.3609ZM48.9001 13.2728L50.4773 13.6671L50.478 13.6641L48.9001 13.2728ZM60.625 28.2917V29.9174H60.6393L60.6536 29.9171L60.625 28.2917ZM63.6967 27.835L63.2782 26.264L63.2646 26.2677L63.2511 26.2715L63.6967 27.835ZM65.5674 27.7859L65.2318 29.3766L65.2318 29.3766L65.5674 27.7859ZM67.2589 28.5864L68.2762 27.3183V27.3183L67.2589 28.5864ZM68.7649 31.9009L67.1406 31.8331L67.1402 31.8431L67.1399 31.8531L68.7649 31.9009ZM68.6962 32.588L67.0878 32.3514L67.0703 32.4706L67.0705 32.591L68.6962 32.588ZM80.8333 44.4583V46.084H80.8462L80.8591 46.0838L80.8333 44.4583ZM83.8403 44.0218L83.4396 42.4463L83.4212 42.451L83.4029 42.4561L83.8403 44.0218ZM88.2713 43.4194C87.5903 42.9055 86.8026 42.5512 85.9662 42.3827L85.3243 45.5701C85.6829 45.6423 86.0206 45.7942 86.3125 46.0146L88.2713 43.4194ZM89.8966 45.3656C89.5095 44.6052 88.9562 43.9416 88.2776 43.4242L86.3062 46.0098C86.5966 46.2312 86.8334 46.5151 86.999 46.8406L89.8966 45.3656ZM90.5137 47.8171C90.4946 46.964 90.2837 46.1261 89.8966 45.3656L86.999 46.8406C87.1647 47.166 87.2549 47.5245 87.2631 47.8896L90.5137 47.8171ZM90.5424 48.5C90.5424 48.2413 90.5263 47.9948 90.5108 47.7503L87.2659 47.9563C87.2827 48.2211 87.291 48.3626 87.291 48.5H90.5424ZM48.5 90.5424C71.6836 90.5424 90.5424 71.6836 90.5424 48.5H87.291C87.291 69.8879 69.8879 87.291 48.5 87.291V90.5424ZM6.45762 48.5C6.45762 71.6836 25.3164 90.5424 48.5 90.5424V87.291C27.1121 87.291 9.70901 69.8879 9.70901 48.5H6.45762ZM17.3209 20.2075C10.2921 27.9523 6.4167 38.0476 6.45763 48.5064L9.709 48.4936C9.67125 38.8471 13.2456 29.5359 19.7286 22.3926L17.3209 20.2075ZM44.4368 6.65865C34.0231 7.62924 24.3498 12.4626 17.3209 20.2075L19.7286 22.3926C26.2116 15.2492 35.1336 10.7912 44.7385 9.89602L44.4368 6.65865ZM47.0849 7.03932C46.2434 6.70218 45.3333 6.57182 44.431 6.65921L44.7444 9.89546C45.129 9.85821 45.517 9.91378 45.8757 10.0575L47.0849 7.03932ZM49.2672 8.59678C48.6748 7.91056 47.9264 7.37647 47.0849 7.03932L45.8757 10.0575C46.2345 10.2012 46.5535 10.4289 46.806 10.7214L49.2672 8.59678ZM50.4894 10.983C50.2787 10.1013 49.8596 9.283 49.2672 8.59678L46.806 10.7214C47.0586 11.014 47.2372 11.3628 47.327 11.7387L50.4894 10.983ZM50.478 13.6641C50.6962 12.7842 50.7001 11.8648 50.4894 10.983L47.327 11.7387C47.4169 12.1146 47.4152 12.5065 47.3222 12.8816L50.478 13.6641ZM50.1257 16.1667C50.1257 15.4524 50.2265 14.6701 50.4773 13.6671L47.323 12.8785C47.024 14.0743 46.8743 15.1269 46.8743 16.1667H50.1257ZM60.625 26.666C54.8379 26.666 50.1257 21.9537 50.1257 16.1667H46.8743C46.8743 23.7494 53.0422 29.9174 60.625 29.9174V26.666ZM63.2511 26.2715C62.3871 26.5177 61.4947 26.6504 60.5964 26.6662L60.6536 29.9171C61.834 29.8964 63.0068 29.722 64.1422 29.3984L63.2511 26.2715ZM65.9029 26.1952C65.0347 26.0121 64.1356 26.0357 63.2782 26.264L64.1151 29.4059C64.4799 29.3087 64.8624 29.2987 65.2318 29.3766L65.9029 26.1952ZM68.2762 27.3183C67.5841 26.7631 66.7711 26.3784 65.9029 26.1952L65.2318 29.3766C65.6012 29.4545 65.9471 29.6182 66.2416 29.8545L68.2762 27.3183ZM69.8872 29.3915C69.5201 28.5837 68.9683 27.8735 68.2762 27.3183L66.2416 29.8545C66.5361 30.0907 66.7709 30.3929 66.927 30.7366L69.8872 29.3915ZM70.3892 31.9687C70.4262 31.0822 70.2542 30.1994 69.8872 29.3915L66.927 30.7366C67.0832 31.0803 67.1564 31.4559 67.1406 31.8331L70.3892 31.9687ZM70.3046 32.8245C70.3287 32.6605 70.3832 32.1774 70.3899 31.9487L67.1399 31.8531C67.1403 31.8405 67.14 31.8551 67.1353 31.9107C67.1313 31.958 67.1258 32.0161 67.1195 32.0779C67.1059 32.21 67.0926 32.3189 67.0878 32.3514L70.3046 32.8245ZM80.8333 42.8326C75.0245 42.8326 70.3323 38.0981 70.3219 32.5849L67.0705 32.591C67.0844 39.9384 73.2724 46.084 80.8333 46.084V42.8326ZM83.4029 42.4561C82.5575 42.6923 81.6852 42.8189 80.8075 42.8328L80.8591 46.0838C82.0152 46.0655 83.1642 45.8987 84.2778 45.5876L83.4029 42.4561ZM85.9662 42.3827C85.1299 42.2143 84.2664 42.236 83.4396 42.4463L84.241 45.5974C84.5955 45.5072 84.9657 45.4979 85.3243 45.5701L85.9662 42.3827Z" fill="#1B1B1B"/>
<path d="M42.9097 75.7129C34.5988 73.974 26.9535 69.0737 21.9522 61.4258C21.0418 60.0336 21.4347 58.1654 22.8269 57.255C24.2191 56.3446 26.0881 56.7336 26.9985 58.1257C35.1856 70.64 52.0276 74.1638 64.545 65.9815C65.9372 65.071 67.8053 65.464 68.7157 66.8562C69.6262 68.2483 69.2372 70.1173 67.845 71.0277C60.1892 76.0275 51.2206 77.4517 42.9097 75.7129Z" fill="#1B1B1B"/>
<rect x="22.5154" y="25.4693" width="0.717072" height="2.86829" transform="rotate(3.87121 22.5154 25.4693)" fill="#FAFAFA"/>
<rect x="30.3367" y="26.7173" width="0.717072" height="2.86829" transform="rotate(3.87121 30.3367 26.7173)" fill="#FAFAFA"/>
<rect x="46.7917" y="27.8307" width="0.717072" height="2.86829" transform="rotate(3.87121 46.7917 27.8307)" fill="#FAFAFA"/>
<rect x="37.5395" y="26.4859" width="0.717072" height="2.86829" transform="rotate(3.87121 37.5395 26.4859)" fill="#FAFAFA"/>
<rect x="19.5084" y="27.4219" width="0.717071" height="30.8341" transform="rotate(-86.1288 19.5084 27.4219)" fill="#FAFAFA"/>
<path d="M60.625 42.2569C60.625 44.5576 58.7599 46.4227 56.4592 46.4227C54.1584 46.4227 52.2933 44.5576 52.2933 42.2569C52.2933 39.9561 54.1584 38.091 56.4592 38.091C58.7599 38.091 60.625 39.9561 60.625 42.2569Z" fill="#FAFAFA" stroke="#1B1B1B" stroke-width="3.7933"/>
<path d="M38.52 39.1184C38.52 41.4191 36.6549 43.2842 34.3541 43.2842C32.0534 43.2842 30.1883 41.4191 30.1883 39.1184C30.1883 36.8176 32.0534 34.9525 34.3541 34.9525C36.6549 34.9525 38.52 36.8176 38.52 39.1184Z" fill="#FAFAFA" stroke="#1B1B1B" stroke-width="3.7933"/>
<path d="M77.4916 53.6481C78.6888 53.6481 79.6592 52.6776 79.6592 51.4805C79.6592 50.2833 78.6888 49.3129 77.4916 49.3129C76.2945 49.3129 75.324 50.2833 75.324 51.4805C75.324 52.6776 76.2945 53.6481 77.4916 53.6481Z" fill="#1B1B1B"/>
<path d="M63.9441 56.3575C65.1413 56.3575 66.1117 55.3871 66.1117 54.1899C66.1117 52.9928 65.1413 52.0223 63.9441 52.0223C62.747 52.0223 61.7766 52.9928 61.7766 54.1899C61.7766 55.3871 62.747 56.3575 63.9441 56.3575Z" fill="#1B1B1B"/>
<path d="M39.2877 57.9832C40.0359 57.9832 40.6425 57.3767 40.6425 56.6285C40.6425 55.8803 40.0359 55.2737 39.2877 55.2737C38.5395 55.2737 37.933 55.8803 37.933 56.6285C37.933 57.3767 38.5395 57.9832 39.2877 57.9832Z" fill="#1B1B1B"/>
<path d="M16.7989 54.7318C17.996 54.7318 18.9665 53.7614 18.9665 52.5642C18.9665 51.3671 17.996 50.3966 16.7989 50.3966C15.6018 50.3966 14.6313 51.3671 14.6313 52.5642C14.6313 53.7614 15.6018 54.7318 16.7989 54.7318Z" fill="#1B1B1B"/>
<path d="M27.6369 78.5754C28.834 78.5754 29.8045 77.605 29.8045 76.4078C29.8045 75.2107 28.834 74.2402 27.6369 74.2402C26.4398 74.2402 25.4693 75.2107 25.4693 76.4078C25.4693 77.605 26.4398 78.5754 27.6369 78.5754Z" fill="#1B1B1B"/>
<path d="M55.8156 82.9106C56.7135 82.9106 57.4413 82.1828 57.4413 81.2849C57.4413 80.3871 56.7135 79.6592 55.8156 79.6592C54.9178 79.6592 54.1899 80.3871 54.1899 81.2849C54.1899 82.1828 54.9178 82.9106 55.8156 82.9106Z" fill="#1B1B1B"/>
<path d="M77.4916 68.2793C78.6888 68.2793 79.6592 67.3089 79.6592 66.1117C79.6592 64.9146 78.6888 63.9441 77.4916 63.9441C76.2945 63.9441 75.324 64.9146 75.324 66.1117C75.324 67.3089 76.2945 68.2793 77.4916 68.2793Z" fill="#1B1B1B"/>
<path d="M17.3408 39.5586C18.5379 39.5586 19.5084 38.5882 19.5084 37.391C19.5084 36.1939 18.5379 35.2234 17.3408 35.2234C16.1436 35.2234 15.1732 36.1939 15.1732 37.391C15.1732 38.5882 16.1436 39.5586 17.3408 39.5586Z" fill="#1B1B1B"/>
<path d="M40.6425 20.5922C41.8396 20.5922 42.81 19.6217 42.81 18.4246C42.81 17.2275 41.8396 16.257 40.6425 16.257C39.4453 16.257 38.4749 17.2275 38.4749 18.4246C38.4749 19.6217 39.4453 20.5922 40.6425 20.5922Z" fill="#1B1B1B"/>
</svg>
