<svg width="92" height="92" viewBox="0 0 92 92" fill="none" xmlns="http://www.w3.org/2000/svg">
<path d="M25 38.0001V71.2223C25 74.0334 27.3 76.3334 30.1111 76.3334H62.0556C64.8667 76.3334 67.1667 74.0334 67.1667 71.2223V38.0001H25Z" fill="#F5F3F7"/>
<path d="M35.5 48.0001C33.5698 48.0001 32 46.4303 32 44.5001C32 42.5698 33.5698 41.0001 35.5 41.0001C37.4303 41.0001 39 42.5698 39 44.5001C39 46.4303 37.4303 48.0001 35.5 48.0001ZM35.5 43.6251C35.017 43.6251 34.625 44.0188 34.625 44.5001C34.625 44.9813 35.017 45.3751 35.5 45.3751C35.983 45.3751 36.375 44.9813 36.375 44.5001C36.375 44.0188 35.983 43.6251 35.5 43.6251Z" fill="#1B1B1B"/>
<path d="M56.5 48.0001C54.5698 48.0001 53 46.4303 53 44.5001C53 42.5698 54.5698 41.0001 56.5 41.0001C58.4303 41.0001 60 42.5698 60 44.5001C60 46.4303 58.4303 48.0001 56.5 48.0001ZM56.5 43.6251C56.017 43.6251 55.625 44.0188 55.625 44.5001C55.625 44.9813 56.017 45.3751 56.5 45.3751C56.983 45.3751 57.375 44.9813 57.375 44.5001C57.375 44.0188 56.983 43.6251 56.5 43.6251Z" fill="#1B1B1B"/>
<path d="M35.3478 45.5651C36.1042 45.5651 36.7174 44.952 36.7174 44.1956C36.7174 43.4392 36.1042 42.826 35.3478 42.826C34.5914 42.826 33.9783 43.4392 33.9783 44.1956C33.9783 44.952 34.5914 45.5651 35.3478 45.5651Z" fill="#D51A52"/>
<path d="M56.3478 45.5651C57.1042 45.5651 57.7174 44.952 57.7174 44.1956C57.7174 43.4392 57.1042 42.826 56.3478 42.826C55.5914 42.826 54.9783 43.4392 54.9783 44.1956C54.9783 44.952 55.5914 45.5651 56.3478 45.5651Z" fill="#D51A52"/>
<path d="M72.1944 36.4164H19.8055V30.0276C19.8055 27.2037 22.0928 24.9164 24.9167 24.9164H67.0833C69.9072 24.9164 72.1944 27.2037 72.1944 30.0276V36.4164Z" fill="#D51A52"/>
<path d="M30.6667 24.9164H24.9167C22.0928 24.9164 19.8055 27.2037 19.8055 30.0276V36.4164H25.5555V30.0276C25.5555 27.2037 27.8428 24.9164 30.6667 24.9164Z" fill="#C61349"/>
<path d="M61.9722 76.6664H30.0278C26.151 76.6664 23 73.5154 23 69.6387V36.4164H26.8333V69.6387C26.8333 71.3994 28.267 72.8331 30.0278 72.8331H61.9722C63.733 72.8331 65.1667 71.3994 65.1667 69.6387V36.4164H69V69.6387C69 73.5154 65.849 76.6664 61.9722 76.6664Z" fill="#1B1B1B"/>
<path d="M72.1945 38.3333H60.0556V34.5H70.2778V30.0278C70.2778 28.267 68.8441 26.8333 67.0834 26.8333H24.9167C23.1559 26.8333 21.7222 28.267 21.7222 30.0278V34.5H60.0556V38.3333H19.8056C18.7476 38.3333 17.8889 37.4747 17.8889 36.4167V30.0278C17.8889 26.151 21.0399 23 24.9167 23H67.0834C70.9601 23 74.1111 26.151 74.1111 30.0278V36.4167C74.1111 37.4747 73.2525 38.3333 72.1945 38.3333Z" fill="#1B1B1B"/>
<path d="M58.7777 24.9165H54.9444V19.8054C54.9444 19.4527 54.6582 19.1665 54.3055 19.1665H37.6944C37.3417 19.1665 37.0555 19.4527 37.0555 19.8054V24.9165H33.2222V19.8054C33.2222 17.3393 35.2283 15.3332 37.6944 15.3332H54.3055C56.7716 15.3332 58.7777 17.3393 58.7777 19.8054V24.9165Z" fill="#1B1B1B"/>
<path d="M5.11108 72.8332H86.8889V76.6665H5.11108V72.8332Z" fill="#1B1B1B"/>
<path d="M44 56H48V69H44V56Z" fill="#1B1B1B"/>
<path d="M33 54H36.8333V68.6389H33V54Z" fill="#1B1B1B"/>
<path d="M54.7222 54H58.5555V68.6389H54.7222V54Z" fill="#1B1B1B"/>
<rect x="27" y="28" width="1" height="4" fill="#FAFAFA"/>
<rect x="38" y="29" width="1" height="4" fill="#FAFAFA"/>
<rect x="48" y="28" width="1" height="4" fill="#FAFAFA"/>
<rect x="23" y="31" width="0.999999" height="31" transform="rotate(-90 23 31)" fill="#FAFAFA"/>
</svg>
