<svg width="92" height="92" viewBox="0 0 92 92" fill="none" xmlns="http://www.w3.org/2000/svg">
<path fill-rule="evenodd" clip-rule="evenodd" d="M72.9883 6.9823C71.8992 6.43979 70.5766 6.88287 70.0341 7.97194C69.4916 9.06102 69.9346 10.3837 71.0237 10.9262L73.1 11.9605C73.0397 12.054 72.986 12.1535 72.9397 12.2587L69.1962 20.7651C68.8105 21.6415 69.1812 22.6663 70.0382 23.0932C70.9101 23.5275 71.9692 23.1867 72.4241 22.3254L76.7648 14.1077C76.8104 14.0214 76.8494 13.9335 76.8821 13.8444L78.9115 14.8554C80.0006 15.3979 81.3232 14.9548 81.8657 13.8657C82.4082 12.7766 81.9652 11.454 80.8761 10.9115L72.9883 6.9823Z" fill="#1B1B1B"/>
<path d="M69.6389 72.1945H22.3611C19.5372 72.1945 17.25 69.9072 17.25 67.0834V28.75H74.75V67.0834C74.75 69.9072 72.4628 72.1945 69.6389 72.1945Z" fill="#F5F3F7"/>
<path d="M74.75 33H17.25V27.3452C17.25 23.1795 19.5372 19.8054 22.3611 19.8054H69.6389C72.4628 19.8054 74.75 23.1795 74.75 27.3452V33Z" fill="#D51A52"/>
<path d="M46.0051 56.2045C51.405 56.2045 56.8023 58.2592 60.9117 62.3686L62.2661 63.723L59.5547 66.4344L58.2002 65.08C51.474 58.3563 40.5311 58.3563 33.8049 65.08L32.4504 66.4345L29.739 63.723L31.0934 62.3686C35.2079 58.2592 40.6052 56.2045 46.0051 56.2045Z" fill="#1B1B1B"/>
<path d="M69.6388 74.111H22.361C18.4843 74.111 15.3333 70.96 15.3333 67.0832V24.9165C15.3333 21.0397 18.4843 17.8887 22.361 17.8887H69.6388C73.5156 17.8887 76.6666 21.0397 76.6666 24.9165V67.0832C76.6666 70.96 73.5156 74.111 69.6388 74.111ZM22.361 21.7221C20.6003 21.7221 19.1666 23.1557 19.1666 24.9165V67.0832C19.1666 68.844 20.6003 70.2776 22.361 70.2776H69.6388C71.3996 70.2776 72.8332 68.844 72.8332 67.0832V24.9165C72.8332 23.1557 71.3996 21.7221 69.6388 21.7221H22.361Z" fill="#1B1B1B"/>
<path d="M17.25 32H74.75V35.8333H17.25V32Z" fill="#1B1B1B"/>
<path d="M5.11108 70.2779H86.8889V74.1112H5.11108V70.2779Z" fill="#1B1B1B"/>
<path d="M33.2222 48.5558C30.4034 48.5558 28.1111 46.2635 28.1111 43.4447C28.1111 40.6259 30.4034 38.3336 33.2222 38.3336C36.041 38.3336 38.3333 40.6259 38.3333 43.4447C38.3333 46.2635 36.041 48.5558 33.2222 48.5558ZM33.2222 42.1669C32.5169 42.1669 31.9444 42.7419 31.9444 43.4447C31.9444 44.1474 32.5169 44.7225 33.2222 44.7225C33.9275 44.7225 34.5 44.1474 34.5 43.4447C34.5 42.7419 33.9275 42.1669 33.2222 42.1669Z" fill="#1B1B1B"/>
<path d="M58.7777 48.5558C55.959 48.5558 53.6666 46.2635 53.6666 43.4447C53.6666 40.6259 55.959 38.3336 58.7777 38.3336C61.5965 38.3336 63.8889 40.6259 63.8889 43.4447C63.8889 46.2635 61.5965 48.5558 58.7777 48.5558ZM58.7777 42.1669C58.0724 42.1669 57.5 42.7419 57.5 43.4447C57.5 44.1474 58.0724 44.7225 58.7777 44.7225C59.4831 44.7225 60.0555 44.1474 60.0555 43.4447C60.0555 42.7419 59.4831 42.1669 58.7777 42.1669Z" fill="#1B1B1B"/>
<path d="M33 44.9998C34.1046 44.9998 35 44.1044 35 42.9998C35 41.8952 34.1046 40.9998 33 40.9998C31.8954 40.9998 31 41.8952 31 42.9998C31 44.1044 31.8954 44.9998 33 44.9998Z" fill="#D51A52"/>
<path d="M59 44.9998C60.1046 44.9998 61 44.1044 61 42.9998C61 41.8952 60.1046 40.9998 59 40.9998C57.8954 40.9998 57 41.8952 57 42.9998C57 44.1044 57.8954 44.9998 59 44.9998Z" fill="#D51A52"/>
<rect x="27" y="24" width="1" height="4" fill="#FAFAFA"/>
<rect x="38" y="25" width="1" height="4" fill="#FAFAFA"/>
<rect x="61" y="25" width="1" height="4" fill="#FAFAFA"/>
<rect x="48" y="24" width="1" height="4" fill="#FAFAFA"/>
<rect x="23" y="27" width="0.999998" height="43" transform="rotate(-90 23 27)" fill="#FAFAFA"/>
<path fill-rule="evenodd" clip-rule="evenodd" d="M7.5578 17.789C6.69745 18.6494 6.69745 20.0443 7.5578 20.9046C8.41815 21.7649 9.81305 21.7649 10.6734 20.9046L12.3406 19.2374C12.4129 19.3253 12.4934 19.4086 12.582 19.4861L16.7101 23.0962C17.4311 23.7268 18.5175 23.6905 19.1948 23.0132C19.8887 22.3193 19.9075 21.2001 19.2371 20.4834L15.4912 16.4781C15.4272 16.4097 15.3598 16.3465 15.2894 16.2886L16.9046 14.6734C17.7649 13.8131 17.7649 12.4182 16.9046 11.5578C16.0442 10.6975 14.6493 10.6975 13.789 11.5578L7.5578 17.789Z" fill="#1B1B1B"/>
</svg>
