<svg width="36" height="36" viewBox="0 0 36 36" fill="none" xmlns="http://www.w3.org/2000/svg">
<path d="M18 34.25C26.9746 34.25 34.25 26.9746 34.25 18C34.25 9.02537 26.9746 1.75 18 1.75C9.02537 1.75 1.75 9.02537 1.75 18C1.75 26.9746 9.02537 34.25 18 34.25Z" fill="#024425" stroke="#1B1B1B" stroke-width="2.5"/>
<path d="M18.6396 25.2176C18.7497 25.1145 18.8376 24.99 18.8978 24.8517C18.958 24.7134 18.9893 24.5642 18.9897 24.4134V23.9337C18.9897 23.643 18.8743 23.3643 18.6687 23.1588C18.4632 22.9532 18.1844 22.8378 17.8938 22.8378H17.8669C17.5765 22.8381 17.298 22.9537 17.0927 23.1592C16.8875 23.3647 16.7722 23.6432 16.7722 23.9337V24.4134C16.7726 24.5642 16.8038 24.7134 16.8641 24.8517C16.9243 24.99 17.0122 25.1145 17.1223 25.2176L15.8023 32.8518C17.1841 33.044 18.5859 33.044 19.9678 32.8518L18.6396 25.2176Z" fill="#03713E"/>
<path d="M27.6918 23.3747L22.7665 20.8233C22.6604 20.7682 22.5401 20.7461 22.4213 20.7601C22.3025 20.774 22.1906 20.8233 22.1001 20.9015C21.7389 21.2179 21.3355 21.4827 20.9015 21.6882C20.8055 21.732 20.7227 21.8003 20.6613 21.8861C20.5998 21.9718 20.5619 22.0722 20.5513 22.1772L19.5511 32.9032C23.2768 32.4865 26.7105 30.6868 29.1729 27.86C29.1601 25.751 28.9488 24.3854 27.6918 23.3747Z" fill="#05C46B"/>
<path d="M15.1895 22.141C15.1773 22.0021 15.1325 21.8681 15.0586 21.7499C14.9848 21.6316 14.8841 21.5325 14.7647 21.4606C14.4985 21.3014 14.247 21.119 14.013 20.9155C13.8783 20.8005 13.7122 20.7285 13.5362 20.709C13.3601 20.6894 13.1823 20.7231 13.0256 20.8058L8.05482 23.3747C6.79898 24.3842 6.58773 25.7486 6.57489 27.8599C9.03545 30.6848 12.4658 32.4843 16.1886 32.9031L15.1895 22.141Z" fill="#05C46B"/>
<path d="M12.92 6.75426L11.8579 7.81641L12.1236 8.08215L13.1858 7.02L12.92 6.75426Z" fill="#03713E"/>
<path d="M12.4806 7.62185C12.616 7.62185 12.7257 7.51211 12.7257 7.37675C12.7257 7.24139 12.616 7.13165 12.4806 7.13165C12.3452 7.13165 12.2355 7.24139 12.2355 7.37675C12.2355 7.51211 12.3452 7.62185 12.4806 7.62185Z" fill="#03713E"/>
<path d="M13.7341 8.35902L12.6719 7.29688L12.4062 7.56262L13.4683 8.62476L13.7341 8.35902Z" fill="#03713E"/>
<path d="M12.92 7.43941L12.6243 7.90004C12.6138 7.91631 12.6185 7.93797 12.6348 7.94842L12.6446 7.95473C12.6609 7.96517 12.6826 7.96045 12.693 7.94418L12.9887 7.48355C12.9992 7.46727 12.9945 7.44561 12.9782 7.43517L12.9684 7.42886C12.9521 7.41841 12.9304 7.42314 12.92 7.43941Z" fill="#03713E"/>
<path d="M13.0629 7.58394L12.7671 8.04457C12.7567 8.06084 12.7614 8.0825 12.7777 8.09295L12.7875 8.09926C12.8038 8.1097 12.8254 8.10498 12.8359 8.08871L13.1316 7.62808C13.1421 7.6118 13.1373 7.59014 13.1211 7.5797L13.1112 7.57339C13.095 7.56294 13.0733 7.56767 13.0629 7.58394Z" fill="#03713E"/>
<path d="M13.2064 7.72743L12.9107 8.18807C12.9002 8.20434 12.9049 8.226 12.9212 8.23645L12.931 8.24275C12.9473 8.2532 12.969 8.24848 12.9794 8.2322L13.2751 7.77157C13.2856 7.7553 13.2809 7.73364 13.2646 7.72319L13.2548 7.71688C13.2385 7.70644 13.2168 7.71116 13.2064 7.72743Z" fill="#03713E"/>
<path d="M13.3499 7.87093L13.0542 8.33156C13.0437 8.34783 13.0484 8.36949 13.0647 8.37994L13.0745 8.38624C13.0908 8.39669 13.1125 8.39197 13.1229 8.3757L13.4186 7.91506C13.4291 7.89879 13.4244 7.87713 13.4081 7.86668L13.3983 7.86038C13.382 7.84993 13.3603 7.85465 13.3499 7.87093Z" fill="#03713E"/>
<path d="M13.4841 8.02928L13.1885 8.48908C13.1781 8.50533 13.1828 8.52696 13.199 8.5374L13.2088 8.5437C13.2251 8.55415 13.2467 8.54944 13.2572 8.5332L13.5527 8.0734C13.5632 8.05715 13.5585 8.03552 13.5422 8.02508L13.5324 8.01877C13.5162 8.00833 13.4946 8.01303 13.4841 8.02928Z" fill="#03713E"/>
<path d="M24.1191 7.81562L23.057 6.75348L22.7912 7.01922L23.8534 8.08137L24.1191 7.81562Z" fill="#03713E"/>
<path d="M23.4949 7.62185C23.6302 7.62185 23.74 7.51211 23.74 7.37675C23.74 7.24139 23.6302 7.13165 23.4949 7.13165C23.3595 7.13165 23.2498 7.24139 23.2498 7.37675C23.2498 7.51211 23.3595 7.62185 23.4949 7.62185Z" fill="#03713E"/>
<path d="M22.5138 8.62989L23.576 7.56775L23.3102 7.30201L22.2481 8.36415L22.5138 8.62989Z" fill="#03713E"/>
<path d="M23.4316 7.81641L22.9709 7.52069C22.9547 7.51024 22.933 7.51496 22.9226 7.53123L22.9162 7.54106C22.9058 7.55733 22.9105 7.57899 22.9268 7.58944L23.3874 7.88516C23.4037 7.8956 23.4254 7.89088 23.4358 7.87461L23.4421 7.86479C23.4526 7.84851 23.4478 7.82685 23.4316 7.81641Z" fill="#03713E"/>
<path d="M23.288 7.96008L22.8274 7.66436C22.8111 7.65392 22.7895 7.65864 22.779 7.67491L22.7727 7.68473C22.7623 7.70101 22.767 7.72267 22.7833 7.73311L23.2439 8.02883C23.2602 8.03928 23.2818 8.03456 23.2923 8.01829L23.2986 8.00846C23.309 7.99219 23.3043 7.97053 23.288 7.96008Z" fill="#03713E"/>
<path d="M23.1445 8.1037L22.6839 7.80798C22.6676 7.79753 22.646 7.80225 22.6355 7.81853L22.6292 7.82835C22.6188 7.84462 22.6235 7.86628 22.6398 7.87673L23.1004 8.17245C23.1167 8.1829 23.1383 8.17817 23.1488 8.1619L23.1551 8.15208C23.1655 8.13581 23.1608 8.11414 23.1445 8.1037Z" fill="#03713E"/>
<path d="M23.001 8.24731L22.5404 7.95159C22.5241 7.94115 22.5025 7.94587 22.492 7.96214L22.4857 7.97196C22.4753 7.98824 22.48 8.0099 22.4963 8.02034L22.9569 8.31606C22.9732 8.32651 22.9948 8.32179 23.0053 8.30552L23.0116 8.29569C23.022 8.27942 23.0173 8.25776 23.001 8.24731Z" fill="#03713E"/>
<path d="M22.8575 8.39093L22.3969 8.09521C22.3806 8.08476 22.359 8.08949 22.3485 8.10576L22.3422 8.11558C22.3318 8.13185 22.3365 8.15351 22.3528 8.16396L22.8134 8.45968C22.8297 8.47013 22.8513 8.46541 22.8618 8.44913L22.8681 8.43931C22.8785 8.42304 22.8738 8.40138 22.8575 8.39093Z" fill="#03713E"/>
<path d="M24.1181 11.5306H23.5415V8.98746C23.5415 8.77871 23.5004 8.572 23.4205 8.37914C23.3406 8.18627 23.2235 8.01103 23.0759 7.86342C22.9283 7.71581 22.7531 7.59872 22.5602 7.51883C22.3674 7.43894 22.1606 7.39783 21.9519 7.39783H14.1321C13.7105 7.39783 13.3062 7.56531 13.0081 7.86342C12.7099 8.16154 12.5425 8.56587 12.5425 8.98746V11.5306H11.8632V13.8544H12.5425V14.8325C12.5425 16.1325 13.0589 17.3794 13.9782 18.2987C14.8975 19.218 16.1443 19.7344 17.4444 19.7344H18.6396C19.9396 19.7344 21.1865 19.218 22.1058 18.2987C23.0251 17.3794 23.5415 16.1325 23.5415 14.8325V13.8544H24.1169L24.1181 11.5306Z" fill="#05C46B"/>
<path d="M19.3819 9.51379H12.5145C12.4126 9.51379 12.33 9.59636 12.33 9.6982C12.33 9.80005 12.4126 9.88261 12.5145 9.88261H19.3819C19.4837 9.88261 19.5663 9.80005 19.5663 9.6982C19.5663 9.59636 19.4837 9.51379 19.3819 9.51379Z" fill="#024425"/>
<path d="M14.1461 10.2829V8.94771C14.1461 8.84587 14.0636 8.76331 13.9617 8.76331C13.8599 8.76331 13.7773 8.84587 13.7773 8.94771V10.2829C13.7773 10.3848 13.8599 10.4673 13.9617 10.4673C14.0636 10.4673 14.1461 10.3848 14.1461 10.2829Z" fill="#024425"/>
<path d="M18.6979 10.6331V8.94771C18.6979 8.84587 18.6154 8.76331 18.5135 8.76331C18.4117 8.76331 18.3291 8.84587 18.3291 8.94771V10.6331C18.3291 10.7349 18.4117 10.8175 18.5135 10.8175C18.6154 10.8175 18.6979 10.7349 18.6979 10.6331Z" fill="#024425"/>
<path d="M16.2469 10.3997V9.18117C16.2469 9.07933 16.1644 8.99677 16.0625 8.99677C15.9607 8.99677 15.8781 9.07933 15.8781 9.18117V10.3997C15.8781 10.5015 15.9607 10.5841 16.0625 10.5841C16.1644 10.5841 16.2469 10.5015 16.2469 10.3997Z" fill="#024425"/>
<path d="M15.2479 17.2391C17.1293 18.1588 19.041 18.2311 20.7334 17.2391" stroke="#024425" stroke-width="0.583567" stroke-miterlimit="10" stroke-linecap="round"/>
<path d="M20.0331 14.6679C20.4843 14.6679 20.8501 14.3021 20.8501 13.8509C20.8501 13.3997 20.4843 13.0339 20.0331 13.0339C19.5819 13.0339 19.2161 13.3997 19.2161 13.8509C19.2161 14.3021 19.5819 14.6679 20.0331 14.6679Z" fill="#024425"/>
<path d="M16.0649 14.5511C16.4516 14.5511 16.7652 14.2376 16.7652 13.8509C16.7652 13.4641 16.4516 13.1506 16.0649 13.1506C15.6781 13.1506 15.3646 13.4641 15.3646 13.8509C15.3646 14.2376 15.6781 14.5511 16.0649 14.5511Z" fill="#024425"/>
</svg>
