<svg width="36" height="36" viewBox="0 0 36 36" fill="none" xmlns="http://www.w3.org/2000/svg">
<path d="M18 34.7143C27.2311 34.7143 34.7143 27.231 34.7143 18C34.7143 8.76894 27.2311 1.2857 18 1.2857C8.76897 1.2857 1.28573 8.76894 1.28573 18C1.28573 27.231 8.76897 34.7143 18 34.7143Z" fill="#024425" stroke="#1B1B1B" stroke-width="2.57143"/>
<path d="M18.6578 25.4238C18.7711 25.3178 18.8615 25.1897 18.9235 25.0475C18.9854 24.9052 19.0176 24.7518 19.018 24.5967V24.1033C19.018 23.8043 18.8992 23.5176 18.6878 23.3062C18.4764 23.0948 18.1897 22.976 17.8907 22.976H17.8631C17.5644 22.9763 17.278 23.0952 17.0668 23.3066C16.8557 23.518 16.7371 23.8045 16.7371 24.1033V24.5967C16.7375 24.7518 16.7696 24.9052 16.8316 25.0475C16.8935 25.1897 16.9839 25.3178 17.0972 25.4238L15.7395 33.2761C17.1608 33.4738 18.6027 33.4738 20.024 33.2761L18.6578 25.4238Z" fill="#03713E"/>
<path d="M27.9688 23.5282L22.9028 20.9039C22.7936 20.8472 22.6699 20.8245 22.5477 20.8388C22.4255 20.8532 22.3104 20.9039 22.2173 20.9844C21.8458 21.3098 21.4308 21.5821 20.9844 21.7935C20.8857 21.8386 20.8005 21.9088 20.7374 21.997C20.6742 22.0853 20.6352 22.1885 20.6243 22.2965L19.5955 33.3289C23.4276 32.9004 26.9594 31.0492 29.4922 28.1416C29.479 25.9724 29.2617 24.5678 27.9688 23.5282Z" fill="#05C46B"/>
<path d="M15.1092 22.2593C15.0967 22.1165 15.0506 21.9786 14.9746 21.857C14.8987 21.7354 14.7951 21.6334 14.6723 21.5595C14.3985 21.3958 14.1398 21.2082 13.8992 20.9988C13.7606 20.8805 13.5898 20.8065 13.4087 20.7864C13.2276 20.7663 13.0447 20.801 12.8836 20.886L7.77071 23.5282C6.479 24.5667 6.26171 25.97 6.2485 28.1417C8.77937 31.0473 12.3078 32.8982 16.1369 33.329L15.1092 22.2593Z" fill="#05C46B"/>
<path d="M12.7749 6.43296L11.6824 7.52545L11.9558 7.79879L13.0483 6.70629L12.7749 6.43296Z" fill="#03713E"/>
<path d="M12.3229 7.32537C12.4621 7.32537 12.575 7.2125 12.575 7.07327C12.575 6.93404 12.4621 6.82117 12.3229 6.82117C12.1837 6.82117 12.0708 6.93404 12.0708 7.07327C12.0708 7.2125 12.1837 7.32537 12.3229 7.32537Z" fill="#03713E"/>
<path d="M13.6122 8.08358L12.5197 6.99109L12.2463 7.26442L13.3388 8.35692L13.6122 8.08358Z" fill="#03713E"/>
<path d="M12.7652 7.15226L12.4612 7.6252C12.4504 7.64191 12.4553 7.66416 12.472 7.6749L12.482 7.68139C12.4988 7.69213 12.521 7.68729 12.5317 7.67058L12.8358 7.19764C12.8465 7.18093 12.8417 7.15868 12.825 7.14794L12.8149 7.14146C12.7982 7.13072 12.7759 7.13555 12.7652 7.15226Z" fill="#03713E"/>
<path d="M12.9218 7.28637L12.6176 7.76016C12.6069 7.7769 12.6117 7.79918 12.6285 7.80992L12.6386 7.81641C12.6553 7.82715 12.6776 7.8223 12.6883 7.80556L12.9925 7.33177C13.0033 7.31503 12.9984 7.29275 12.9817 7.282L12.9716 7.27552C12.9548 7.26477 12.9325 7.26963 12.9218 7.28637Z" fill="#03713E"/>
<path d="M13.0695 7.43395L12.7653 7.90774C12.7546 7.92448 12.7594 7.94676 12.7762 7.95751L12.7863 7.96399C12.803 7.97474 12.8253 7.96988 12.836 7.95314L13.1402 7.47935C13.1509 7.46261 13.1461 7.44033 13.1293 7.42959L13.1192 7.4231C13.1025 7.41236 13.0802 7.41721 13.0695 7.43395Z" fill="#03713E"/>
<path d="M13.2171 7.58153L12.9129 8.05533C12.9021 8.07206 12.907 8.09434 12.9237 8.10509L12.9338 8.11157C12.9506 8.12232 12.9729 8.11746 12.9836 8.10072L13.2878 7.62693C13.2985 7.61019 13.2937 7.58791 13.2769 7.57717L13.2668 7.57068C13.2501 7.55994 13.2278 7.5648 13.2171 7.58153Z" fill="#03713E"/>
<path d="M13.3659 7.72912L13.0617 8.20291C13.0509 8.21965 13.0558 8.24193 13.0725 8.25267L13.0826 8.25916C13.0994 8.2699 13.1217 8.26505 13.1324 8.24831L13.4366 7.77452C13.4473 7.75778 13.4425 7.7355 13.4257 7.72475L13.4156 7.71827C13.3989 7.70752 13.3766 7.71238 13.3659 7.72912Z" fill="#03713E"/>
<path d="M24.2939 7.52456L23.2014 6.43207L22.9281 6.7054L24.0206 7.7979L24.2939 7.52456Z" fill="#03713E"/>
<path d="M23.6519 7.32537C23.7911 7.32537 23.904 7.2125 23.904 7.07327C23.904 6.93404 23.7911 6.82117 23.6519 6.82117C23.5127 6.82117 23.3998 6.93404 23.3998 7.07327C23.3998 7.2125 23.5127 7.32537 23.6519 7.32537Z" fill="#03713E"/>
<path d="M22.6428 8.36215L23.7353 7.26965L23.462 6.99632L22.3695 8.08881L22.6428 8.36215Z" fill="#03713E"/>
<path d="M23.5868 7.52535L23.113 7.22118C23.0962 7.21043 23.074 7.21529 23.0632 7.23203L23.0567 7.24213C23.046 7.25887 23.0508 7.28115 23.0676 7.29189L23.5414 7.59606C23.5581 7.60681 23.5804 7.60195 23.5911 7.58521L23.5976 7.57511C23.6084 7.55837 23.6035 7.53609 23.5868 7.52535Z" fill="#03713E"/>
<path d="M23.4391 7.67317L22.9653 7.369C22.9486 7.35826 22.9263 7.36312 22.9155 7.37986L22.9091 7.38996C22.8983 7.40669 22.9032 7.42897 22.9199 7.43972L23.3937 7.74389C23.4104 7.75463 23.4327 7.74978 23.4435 7.73304L23.4499 7.72294C23.4607 7.7062 23.4558 7.68392 23.4391 7.67317Z" fill="#03713E"/>
<path d="M23.2915 7.82094L22.8177 7.51677C22.801 7.50603 22.7787 7.51088 22.768 7.52762L22.7615 7.53772C22.7507 7.55446 22.7556 7.57674 22.7723 7.58749L23.2461 7.89165C23.2629 7.9024 23.2851 7.89754 23.2959 7.8808L23.3024 7.8707C23.3131 7.85396 23.3082 7.83168 23.2915 7.82094Z" fill="#03713E"/>
<path d="M23.1439 7.96858L22.6701 7.66441C22.6534 7.65367 22.6311 7.65853 22.6204 7.67526L22.6139 7.68537C22.6031 7.7021 22.608 7.72438 22.6247 7.73513L23.0985 8.0393C23.1153 8.05004 23.1375 8.04519 23.1483 8.02845L23.1548 8.01835C23.1655 8.00161 23.1607 7.97933 23.1439 7.96858Z" fill="#03713E"/>
<path d="M22.9963 8.11641L22.5225 7.81224C22.5058 7.8015 22.4835 7.80635 22.4728 7.82309L22.4663 7.83319C22.4555 7.84993 22.4604 7.87221 22.4771 7.88296L22.9509 8.18713C22.9677 8.19787 22.9899 8.19301 23.0007 8.17628L23.0072 8.16617C23.0179 8.14944 23.0131 8.12716 22.9963 8.11641Z" fill="#03713E"/>
<path d="M24.2929 11.3457H23.6999V8.72984C23.6999 8.51512 23.6576 8.30251 23.5754 8.10413C23.4932 7.90576 23.3728 7.72551 23.221 7.57368C23.0691 7.42185 22.8889 7.30142 22.6905 7.21925C22.4922 7.13708 22.2795 7.09479 22.0648 7.09479H14.0216C13.588 7.09479 13.1721 7.26705 12.8654 7.57368C12.5588 7.88032 12.3865 8.2962 12.3865 8.72984V11.3457H11.6879V13.7358H12.3865V14.7418C12.3865 16.0791 12.9178 17.3615 13.8633 18.3071C14.8089 19.2527 16.0913 19.7839 17.4286 19.7839H18.6579C19.9951 19.7839 21.2775 19.2527 22.2231 18.3071C23.1687 17.3615 23.6999 16.0791 23.6999 14.7418V13.7358H24.2917L24.2929 11.3457Z" fill="#05C46B"/>
<path d="M14.7863 13.2665H17.1873C17.1873 13.5849 17.0608 13.8902 16.8357 14.1153C16.6106 14.3405 16.3052 14.467 15.9868 14.467C15.6684 14.467 15.3631 14.3405 15.138 14.1153C14.9128 13.8902 14.7863 13.5849 14.7863 13.2665Z" fill="#024425"/>
<path d="M18.8979 13.2665H21.2989C21.2989 13.5849 21.1724 13.8902 20.9473 14.1153C20.7221 14.3405 20.4168 14.467 20.0984 14.467C19.78 14.467 19.4747 14.3405 19.2495 14.1153C19.0244 13.8902 18.8979 13.5849 18.8979 13.2665Z" fill="#024425"/>
<path d="M19.4214 9.27136H12.3577C12.253 9.27136 12.1681 9.35628 12.1681 9.46104C12.1681 9.56579 12.253 9.65071 12.3577 9.65071H19.4214C19.5261 9.65071 19.611 9.56579 19.611 9.46104C19.611 9.35628 19.5261 9.27136 19.4214 9.27136Z" fill="#024425"/>
<path d="M14.036 10.0624V8.68906C14.036 8.58431 13.9511 8.49939 13.8463 8.49939C13.7416 8.49939 13.6567 8.58431 13.6567 8.68906V10.0624C13.6567 10.1672 13.7416 10.2521 13.8463 10.2521C13.9511 10.2521 14.036 10.1672 14.036 10.0624Z" fill="#024425"/>
<path d="M18.7179 10.4226V8.68906C18.7179 8.58431 18.633 8.49939 18.5282 8.49939C18.4235 8.49939 18.3385 8.58431 18.3385 8.68906V10.4226C18.3385 10.5273 18.4235 10.6122 18.5282 10.6122C18.633 10.6122 18.7179 10.5273 18.7179 10.4226Z" fill="#024425"/>
<path d="M16.1969 10.1825V8.92918C16.1969 8.82442 16.1119 8.7395 16.0072 8.7395C15.9024 8.7395 15.8175 8.82442 15.8175 8.92918V10.1825C15.8175 10.2872 15.9024 10.3722 16.0072 10.3722C16.1119 10.3722 16.1969 10.2872 16.1969 10.1825Z" fill="#024425"/>
<path d="M15.1693 17.2173C17.1045 18.1633 19.0708 18.2377 20.8115 17.2173" stroke="#024425" stroke-width="0.60024" stroke-miterlimit="10" stroke-linecap="round"/>
</svg>
