<svg width="72" height="72" viewBox="0 0 72 72" fill="none" xmlns="http://www.w3.org/2000/svg">
<path d="M36 71.8333C55.7902 71.8333 71.8333 55.7902 71.8333 36C71.8333 16.2098 55.7902 0.166668 36 0.166668C16.2098 0.166668 0.166656 16.2098 0.166656 36C0.166656 55.7902 16.2098 71.8333 36 71.8333Z" fill="#024425"/>
<path d="M37.5279 53.242C37.791 52.9958 38.001 52.6983 38.1448 52.368C38.2887 52.0376 38.3634 51.6812 38.3643 51.3209V50.175C38.3643 49.4806 38.0885 48.8147 37.5975 48.3237C37.1065 47.8327 36.4406 47.5569 35.7462 47.5569H35.6821C34.9882 47.5576 34.323 47.8338 33.8327 48.3247C33.3423 48.8156 33.0668 49.4811 33.0668 50.175V51.3209C33.0678 51.6812 33.1425 52.0376 33.2863 52.368C33.4302 52.6983 33.6402 52.9958 33.9033 53.242L30.7499 71.4793C34.051 71.9384 37.3997 71.9384 40.7008 71.4793L37.5279 53.242Z" fill="#03713E"/>
<path d="M59.1527 48.8395L47.3867 42.7446C47.1332 42.6129 46.8459 42.5602 46.562 42.5935C46.2782 42.6268 46.0109 42.7445 45.7947 42.9315C44.9318 43.6873 43.9681 44.3198 42.9313 44.8107C42.702 44.9155 42.5042 45.0784 42.3575 45.2834C42.2107 45.4883 42.1202 45.7281 42.0948 45.9789L39.7054 71.602C48.6057 70.6068 56.8084 66.3074 62.6909 59.5544C62.6602 54.5162 62.1556 51.2541 59.1527 48.8395Z" fill="#05C46B"/>
<path d="M29.286 45.8924C29.2569 45.5606 29.1498 45.2405 28.9734 44.958C28.7971 44.6755 28.5564 44.4387 28.2712 44.2669C27.6354 43.8867 27.0345 43.451 26.4756 42.9648C26.1538 42.69 25.757 42.5181 25.3365 42.4714C24.9159 42.4247 24.491 42.5053 24.1168 42.7027L12.2421 48.8394C9.24202 51.2512 8.73737 54.5105 8.7067 59.5543C14.5847 66.3026 22.7795 70.6014 31.6727 71.6019L29.286 45.8924Z" fill="#05C46B"/>
<path d="M23.8645 9.13515L21.3271 11.6725L21.962 12.3073L24.4993 9.76998L23.8645 9.13515Z" fill="#03713E"/>
<path d="M22.8148 11.2077C23.1381 11.2077 23.4003 10.9456 23.4003 10.6222C23.4003 10.2988 23.1381 10.0367 22.8148 10.0367C22.4914 10.0367 22.2292 10.2988 22.2292 10.6222C22.2292 10.9456 22.4914 11.2077 22.8148 11.2077Z" fill="#03713E"/>
<path d="M25.8091 12.9688L23.2718 10.4315L22.637 11.0663L25.1743 13.6037L25.8091 12.9688Z" fill="#03713E"/>
<path d="M23.8644 10.772L23.158 11.8724C23.133 11.9112 23.1443 11.963 23.1832 11.9879L23.2066 12.003C23.2455 12.028 23.2972 12.0167 23.3222 11.9778L24.0286 10.8774C24.0536 10.8385 24.0423 10.7868 24.0034 10.7618L23.98 10.7468C23.9411 10.7218 23.8893 10.7331 23.8644 10.772Z" fill="#03713E"/>
<path d="M24.2057 11.1172L23.4993 12.2176C23.4743 12.2565 23.4856 12.3082 23.5245 12.3332L23.548 12.3483C23.5868 12.3732 23.6386 12.3619 23.6635 12.3231L24.37 11.2227C24.3949 11.1838 24.3836 11.132 24.3448 11.1071L24.3213 11.092C24.2824 11.0671 24.2307 11.0783 24.2057 11.1172Z" fill="#03713E"/>
<path d="M24.5486 11.46L23.8422 12.5604C23.8172 12.5992 23.8285 12.651 23.8674 12.6759L23.8908 12.691C23.9297 12.716 23.9814 12.7047 24.0064 12.6658L24.7128 11.5654C24.7378 11.5265 24.7265 11.4748 24.6876 11.4498L24.6642 11.4348C24.6253 11.4098 24.5736 11.4211 24.5486 11.46Z" fill="#03713E"/>
<path d="M24.8914 11.8027L24.185 12.9031C24.16 12.942 24.1713 12.9937 24.2102 13.0187L24.2336 13.0337C24.2725 13.0587 24.3242 13.0474 24.3492 13.0085L25.0556 11.9081C25.0806 11.8693 25.0693 11.8175 25.0304 11.7926L25.007 11.7775C24.9681 11.7526 24.9164 11.7638 24.8914 11.8027Z" fill="#03713E"/>
<path d="M25.212 12.181L24.5059 13.2794C24.481 13.3182 24.4922 13.3699 24.531 13.3948L24.5544 13.4099C24.5932 13.4348 24.6449 13.4236 24.6699 13.3848L25.376 12.2864C25.4009 12.2476 25.3897 12.1959 25.3509 12.171L25.3275 12.1559C25.2887 12.131 25.237 12.1422 25.212 12.181Z" fill="#03713E"/>
<path d="M50.6179 11.6706L48.0806 9.13329L47.4457 9.76811L49.9831 12.3055L50.6179 11.6706Z" fill="#03713E"/>
<path d="M49.1266 11.2077C49.45 11.2077 49.7121 10.9456 49.7121 10.6222C49.7121 10.2988 49.45 10.0367 49.1266 10.0367C48.8032 10.0367 48.5411 10.2988 48.5411 10.6222C48.5411 10.9456 48.8032 11.2077 49.1266 11.2077Z" fill="#03713E"/>
<path d="M46.7831 13.6159L49.3204 11.0785L48.6856 10.4437L46.1482 12.9811L46.7831 13.6159Z" fill="#03713E"/>
<path d="M48.9754 11.6725L47.875 10.9661C47.8361 10.9411 47.7844 10.9524 47.7594 10.9913L47.7444 11.0148C47.7194 11.0536 47.7307 11.1054 47.7696 11.1303L48.87 11.8368C48.9088 11.8617 48.9606 11.8505 48.9855 11.8116L49.0006 11.7881C49.0256 11.7492 49.0143 11.6975 48.9754 11.6725Z" fill="#03713E"/>
<path d="M48.6325 12.0158L47.5321 11.3093C47.4933 11.2844 47.4415 11.2956 47.4166 11.3345L47.4015 11.358C47.3766 11.3969 47.3878 11.4486 47.4267 11.4736L48.5271 12.18C48.566 12.205 48.6177 12.1937 48.6427 12.1548L48.6577 12.1313C48.6827 12.0925 48.6714 12.0407 48.6325 12.0158Z" fill="#03713E"/>
<path d="M48.2897 12.3588L47.1893 11.6524C47.1505 11.6274 47.0987 11.6387 47.0738 11.6776L47.0587 11.701C47.0338 11.7399 47.045 11.7917 47.0839 11.8166L48.1843 12.5231C48.2232 12.548 48.2749 12.5367 48.2999 12.4979L48.3149 12.4744C48.3399 12.4355 48.3286 12.3838 48.2897 12.3588Z" fill="#03713E"/>
<path d="M47.9469 12.7019L46.8465 11.9954C46.8076 11.9705 46.7559 11.9818 46.7309 12.0206L46.7158 12.0441C46.6909 12.083 46.7022 12.1347 46.741 12.1597L47.8414 12.8661C47.8803 12.8911 47.9321 12.8798 47.957 12.8409L47.9721 12.8175C47.997 12.7786 47.9857 12.7268 47.9469 12.7019Z" fill="#03713E"/>
<path d="M47.6041 13.0449L46.5037 12.3385C46.4648 12.3135 46.4131 12.3248 46.3881 12.3637L46.3731 12.3872C46.3481 12.426 46.3594 12.4778 46.3983 12.5027L47.4987 13.2092C47.5375 13.2341 47.5893 13.2229 47.6142 13.184L47.6293 13.1605C47.6543 13.1216 47.643 13.0699 47.6041 13.0449Z" fill="#03713E"/>
<path d="M50.6154 20.5454H49.2381V14.47C49.2381 13.9713 49.1399 13.4775 48.949 13.0168C48.7582 12.556 48.4785 12.1374 48.1258 11.7848C47.7732 11.4321 47.3546 11.1524 46.8939 10.9616C46.4331 10.7707 45.9393 10.6725 45.4406 10.6725H26.76C25.7529 10.6725 24.787 11.0726 24.0748 11.7848C23.3626 12.4969 22.9625 13.4628 22.9625 14.47V20.5454H21.3398V26.0966H22.9625V28.4331C22.9625 31.5388 24.1963 34.5173 26.3924 36.7134C28.5885 38.9095 31.567 40.1433 34.6728 40.1433H37.5279C40.6336 40.1433 43.6121 38.9095 45.8082 36.7134C48.0043 34.5173 49.2381 31.5388 49.2381 28.4331V26.0966H50.6126L50.6154 20.5454Z" fill="#05C46B"/>
<path d="M39.3011 15.7274H22.8956C22.6523 15.7274 22.4551 15.9246 22.4551 16.1679C22.4551 16.4112 22.6523 16.6084 22.8956 16.6084H39.3011C39.5444 16.6084 39.7417 16.4112 39.7417 16.1679C39.7417 15.9246 39.5444 15.7274 39.3011 15.7274Z" fill="#024425"/>
<path d="M26.7935 17.5647V14.3751C26.7935 14.1318 26.5963 13.9346 26.353 13.9346C26.1097 13.9346 25.9125 14.1318 25.9125 14.3751V17.5647C25.9125 17.808 26.1097 18.0053 26.353 18.0053C26.5963 18.0053 26.7935 17.808 26.7935 17.5647Z" fill="#024425"/>
<path d="M37.6673 18.4012V14.3751C37.6673 14.1318 37.4701 13.9346 37.2268 13.9346C36.9835 13.9346 36.7862 14.1318 36.7862 14.3751V18.4012C36.7862 18.6445 36.9835 18.8417 37.2268 18.8417C37.4701 18.8417 37.6673 18.6445 37.6673 18.4012Z" fill="#024425"/>
<path d="M31.8121 17.8436V14.9328C31.8121 14.6895 31.6148 14.4923 31.3715 14.4923C31.1282 14.4923 30.931 14.6895 30.931 14.9328V17.8436C30.931 18.0869 31.1282 18.2842 31.3715 18.2842C31.6148 18.2842 31.8121 18.0869 31.8121 17.8436Z" fill="#024425"/>
<path d="M29.4254 34.1822C33.9199 36.3793 38.4869 36.5521 42.5298 34.1822" stroke="#024425" stroke-width="1.39408" stroke-miterlimit="10" stroke-linecap="round"/>
<path d="M40.8569 28.0398C41.9348 28.0398 42.8086 27.166 42.8086 26.0881C42.8086 25.0102 41.9348 24.1364 40.8569 24.1364C39.779 24.1364 38.9052 25.0102 38.9052 26.0881C38.9052 27.166 39.779 28.0398 40.8569 28.0398Z" fill="#024425"/>
<path d="M31.3772 27.7611C32.3011 27.7611 33.0501 27.0121 33.0501 26.0882C33.0501 25.1643 32.3011 24.4153 31.3772 24.4153C30.4533 24.4153 29.7043 25.1643 29.7043 26.0882C29.7043 27.0121 30.4533 27.7611 31.3772 27.7611Z" fill="#024425"/>
</svg>
