<svg width="74" height="74" viewBox="0 0 74 74" fill="none" xmlns="http://www.w3.org/2000/svg">
<path d="M37 73.8571C57.3556 73.8571 73.8571 57.3556 73.8571 37C73.8571 16.6444 57.3556 0.142857 37 0.142857C16.6444 0.142857 0.142853 16.6444 0.142853 37C0.142853 57.3556 16.6444 73.8571 37 73.8571Z" fill="#024425"/>
<path d="M38.5715 54.7347C38.8422 54.4815 39.0581 54.1755 39.2061 53.8357C39.354 53.4959 39.4309 53.1294 39.4319 52.7588V51.5801C39.4319 50.8659 39.1481 50.1809 38.6431 49.6759C38.1381 49.1709 37.4532 48.8872 36.739 48.8872H36.673C35.9593 48.888 35.2751 49.172 34.7707 49.6769C34.2663 50.1819 33.983 50.8664 33.983 51.5801V52.7588C33.984 53.1294 34.0608 53.4959 34.2088 53.8357C34.3568 54.1755 34.5727 54.4815 34.8433 54.7347L31.5999 73.493C34.9953 73.9653 38.4397 73.9653 41.8351 73.493L38.5715 54.7347Z" fill="#03713E"/>
<path d="M60.8143 50.2063L48.7121 43.9373C48.4513 43.8017 48.1558 43.7475 47.8639 43.7818C47.5719 43.816 47.297 43.9371 47.0746 44.1294C46.187 44.9069 45.1958 45.5574 44.1294 46.0623C43.8936 46.1701 43.6901 46.3377 43.5392 46.5485C43.3882 46.7593 43.2951 47.006 43.269 47.2639L40.8113 73.6191C49.966 72.5954 58.403 68.1733 64.4536 61.2273C64.422 56.0452 63.9029 52.6898 60.8143 50.2063Z" fill="#05C46B"/>
<path d="M30.0943 47.1751C30.0643 46.8338 29.9541 46.5045 29.7727 46.214C29.5913 45.9234 29.3438 45.6798 29.0504 45.5031C28.3964 45.1121 27.7784 44.6639 27.2035 44.1638C26.8726 43.8812 26.4644 43.7044 26.0318 43.6563C25.5993 43.6083 25.1623 43.6912 24.7773 43.8943L12.5633 50.2063C9.47755 52.687 8.95847 56.0395 8.92693 61.2273C14.9729 68.1684 23.4018 72.5901 32.5491 73.6192L30.0943 47.1751Z" fill="#05C46B"/>
<path d="M24.5179 9.36761L21.908 11.9774L22.561 12.6304L25.1708 10.0206L24.5179 9.36761Z" fill="#03713E"/>
<path d="M23.438 11.4995C23.7706 11.4995 24.0403 11.2299 24.0403 10.8972C24.0403 10.5646 23.7706 10.295 23.438 10.295C23.1054 10.295 22.8358 10.5646 22.8358 10.8972C22.8358 11.2299 23.1054 11.4995 23.438 11.4995Z" fill="#03713E"/>
<path d="M26.5179 13.3108L23.9081 10.7009L23.2551 11.3539L25.865 13.9637L26.5179 13.3108Z" fill="#03713E"/>
<path d="M24.4946 11.0861L23.7683 12.2159C23.7426 12.2558 23.7542 12.3089 23.7941 12.3346L23.8182 12.3501C23.8581 12.3757 23.9112 12.3642 23.9369 12.3243L24.6632 11.1945C24.6889 11.1546 24.6773 11.1014 24.6374 11.0757L24.6133 11.0603C24.5734 11.0346 24.5202 11.0462 24.4946 11.0861Z" fill="#03713E"/>
<path d="M24.8687 11.4063L24.1421 12.5382C24.1164 12.5782 24.128 12.6314 24.168 12.6571L24.1922 12.6726C24.2321 12.6982 24.2854 12.6866 24.311 12.6466L25.0377 11.5148C25.0633 11.4748 25.0517 11.4216 25.0117 11.3959L24.9876 11.3804C24.9476 11.3548 24.8944 11.3664 24.8687 11.4063Z" fill="#03713E"/>
<path d="M25.2215 11.7589L24.4948 12.8907C24.4692 12.9307 24.4808 12.9839 24.5208 13.0096L24.5449 13.0251C24.5849 13.0508 24.6381 13.0392 24.6638 12.9992L25.3904 11.8674C25.4161 11.8274 25.4045 11.7741 25.3645 11.7485L25.3403 11.733C25.3004 11.7073 25.2471 11.7189 25.2215 11.7589Z" fill="#03713E"/>
<path d="M25.574 12.1115L24.8474 13.2433C24.8217 13.2833 24.8333 13.3365 24.8733 13.3622L24.8974 13.3777C24.9374 13.4033 24.9907 13.3917 25.0163 13.3517L25.743 12.2199C25.7686 12.1799 25.757 12.1267 25.717 12.101L25.6929 12.0855C25.6529 12.0599 25.5997 12.0715 25.574 12.1115Z" fill="#03713E"/>
<path d="M25.9295 12.464L25.2029 13.5959C25.1772 13.6358 25.1888 13.6891 25.2288 13.7147L25.2529 13.7302C25.2929 13.7559 25.3462 13.7443 25.3718 13.7043L26.0985 12.5725C26.1241 12.5325 26.1125 12.4793 26.0725 12.4536L26.0484 12.4381C26.0084 12.4124 25.9552 12.424 25.9295 12.464Z" fill="#03713E"/>
<path d="M52.0354 11.9754L49.4256 9.36555L48.7726 10.0185L51.3825 12.6284L52.0354 11.9754Z" fill="#03713E"/>
<path d="M50.5017 11.4995C50.8343 11.4995 51.1039 11.2299 51.1039 10.8972C51.1039 10.5646 50.8343 10.295 50.5017 10.295C50.1691 10.295 49.8994 10.5646 49.8994 10.8972C49.8994 11.2299 50.1691 11.4995 50.5017 11.4995Z" fill="#03713E"/>
<path d="M48.0912 13.9763L50.701 11.3664L50.0481 10.7135L47.4382 13.3233L48.0912 13.9763Z" fill="#03713E"/>
<path d="M50.3461 11.9773L49.2143 11.2507C49.1743 11.225 49.1211 11.2366 49.0954 11.2766L49.0799 11.3007C49.0543 11.3407 49.0659 11.394 49.1059 11.4196L50.2377 12.1463C50.2777 12.1719 50.3309 12.1603 50.3566 12.1203L50.3721 12.0962C50.3977 12.0562 50.3861 12.003 50.3461 11.9773Z" fill="#03713E"/>
<path d="M49.9934 12.3304L48.8615 11.6038C48.8216 11.5781 48.7683 11.5897 48.7427 11.6297L48.7272 11.6538C48.7015 11.6938 48.7131 11.747 48.7531 11.7727L49.8849 12.4993C49.9249 12.525 49.9781 12.5134 50.0038 12.4734L50.0193 12.4493C50.045 12.4093 50.0334 12.356 49.9934 12.3304Z" fill="#03713E"/>
<path d="M49.6408 12.6834L48.509 11.9568C48.469 11.9311 48.4158 11.9427 48.3901 11.9827L48.3746 12.0069C48.3489 12.0468 48.3605 12.1001 48.4005 12.1257L49.5324 12.8524C49.5724 12.878 49.6256 12.8664 49.6512 12.8264L49.6667 12.8023C49.6924 12.7623 49.6808 12.7091 49.6408 12.6834Z" fill="#03713E"/>
<path d="M49.2882 13.0361L48.1564 12.3095C48.1164 12.2838 48.0632 12.2954 48.0375 12.3354L48.022 12.3595C47.9964 12.3995 48.008 12.4528 48.048 12.4784L49.1798 13.2051C49.2198 13.2307 49.273 13.2191 49.2987 13.1791L49.3142 13.155C49.3398 13.115 49.3282 13.0618 49.2882 13.0361Z" fill="#03713E"/>
<path d="M48.9357 13.3892L47.8038 12.6626C47.7638 12.6369 47.7106 12.6485 47.6849 12.6885L47.6694 12.7126C47.6438 12.7526 47.6554 12.8058 47.6954 12.8315L48.8272 13.5581C48.8672 13.5838 48.9204 13.5722 48.9461 13.5322L48.9616 13.5081C48.9872 13.4681 48.9756 13.4148 48.9357 13.3892Z" fill="#03713E"/>
<path d="M52.033 21.1037H50.6163V14.8547C50.6163 14.3418 50.5153 13.8339 50.319 13.36C50.1227 12.8861 49.835 12.4555 49.4723 12.0928C49.1096 11.7301 48.679 11.4424 48.2051 11.2461C47.7312 11.0498 47.2233 10.9488 46.7103 10.9488H27.496C26.4601 10.9488 25.4666 11.3603 24.7341 12.0928C24.0015 12.8253 23.59 13.8188 23.59 14.8547V21.1037H21.921V26.8135H23.59V29.2167C23.59 32.4112 24.859 35.4749 27.1179 37.7337C29.3767 39.9925 32.4404 41.2616 35.6348 41.2616H38.5715C41.766 41.2616 44.8296 39.9925 47.0885 37.7337C49.3473 35.4749 50.6163 32.4112 50.6163 29.2167V26.8135H52.0301L52.033 21.1037Z" fill="#05C46B"/>
<path d="M29.3229 25.6921H35.0585C35.0585 26.4527 34.7564 27.1822 34.2185 27.72C33.6807 28.2578 32.9513 28.56 32.1907 28.56C31.4301 28.56 30.7007 28.2578 30.1628 27.72C29.625 27.1822 29.3229 26.4527 29.3229 25.6921Z" fill="#024425"/>
<path d="M39.145 25.6921H44.8806C44.8806 26.4527 44.5785 27.1822 44.0407 27.72C43.5028 28.2578 42.7734 28.56 42.0128 28.56C41.2522 28.56 40.5228 28.2578 39.985 27.72C39.4471 27.1822 39.145 26.4527 39.145 25.6921Z" fill="#024425"/>
<path d="M40.3955 16.1483H23.5212C23.271 16.1483 23.0681 16.3512 23.0681 16.6014C23.0681 16.8517 23.271 17.0545 23.5212 17.0545H40.3955C40.6457 17.0545 40.8486 16.8517 40.8486 16.6014C40.8486 16.3512 40.6457 16.1483 40.3955 16.1483Z" fill="#024425"/>
<path d="M27.5304 18.038V14.7573C27.5304 14.507 27.3275 14.3041 27.0773 14.3041C26.827 14.3041 26.6242 14.507 26.6242 14.7573V18.038C26.6242 18.2883 26.827 18.4911 27.0773 18.4911C27.3275 18.4911 27.5304 18.2883 27.5304 18.038Z" fill="#024425"/>
<path d="M38.715 18.8984V14.7573C38.715 14.507 38.5121 14.3041 38.2618 14.3041C38.0116 14.3041 37.8087 14.507 37.8087 14.7573V18.8984C37.8087 19.1486 38.0116 19.3515 38.2618 19.3515C38.5121 19.3515 38.715 19.1486 38.715 18.8984Z" fill="#024425"/>
<path d="M32.6925 18.3249V15.3309C32.6925 15.0806 32.4897 14.8778 32.2394 14.8778C31.9892 14.8778 31.7863 15.0806 31.7863 15.3309V18.3249C31.7863 18.5751 31.9892 18.778 32.2394 18.778C32.4897 18.778 32.6925 18.5751 32.6925 18.3249Z" fill="#024425"/>
<path d="M30.2377 35.1303C34.8606 37.3901 39.558 37.5679 43.7164 35.1303" stroke="#024425" stroke-width="1.43391" stroke-miterlimit="10" stroke-linecap="round"/>
</svg>
