<svg width="24" height="24" viewBox="0 0 24 24" fill="none" xmlns="http://www.w3.org/2000/svg">
<path d="M19 6V9.33333H21V6H19ZM5 9.33333V6H3V9.33333H5ZM20 8.33333H14.6667V10.3333H20V8.33333ZM14.6667 8.33333H9.33333V10.3333H14.6667V8.33333ZM9.33333 8.33333H4V10.3333H9.33333V8.33333ZM19 9.33333V14.6667H21V9.33333H19ZM19 14.6667V18H21V14.6667H19ZM5 18V14.6667H3V18H5ZM5 14.6667V9.33333H3V14.6667H5ZM20 13.6667H14.6667V15.6667H20V13.6667ZM14.6667 13.6667H9.33333V15.6667H14.6667V13.6667ZM9.33333 13.6667H4V15.6667H9.33333V13.6667ZM6 5H9.33333V3H6V5ZM6 21H9.33333V19H6V21ZM8.33333 4V9.33333H10.3333V4H8.33333ZM8.33333 9.33333V14.6667H10.3333V9.33333H8.33333ZM8.33333 14.6667V20H10.3333V14.6667H8.33333ZM9.33333 5H14.6667V3H9.33333V5ZM14.6667 5H18V3H14.6667V5ZM9.33333 21H14.6667V19H9.33333V21ZM14.6667 21H18V19H14.6667V21ZM13.6667 4V9.33333H15.6667V4H13.6667ZM13.6667 9.33333V14.6667H15.6667V9.33333H13.6667ZM13.6667 14.6667V20H15.6667V14.6667H13.6667ZM3 18C3 19.6569 4.34315 21 6 21V19C5.44772 19 5 18.5523 5 18H3ZM19 18C19 18.5523 18.5523 19 18 19V21C19.6569 21 21 19.6569 21 18H19ZM21 6C21 4.34315 19.6569 3 18 3V5C18.5523 5 19 5.44772 19 6H21ZM5 6C5 5.44772 5.44772 5 6 5V3C4.34315 3 3 4.34315 3 6H5Z" fill="currentColor"/>
</svg>
