<svg width="24" height="24" viewBox="0 0 24 24" fill="none" xmlns="http://www.w3.org/2000/svg">
<g clip-path="url(#clip0_2422_25993)">
<path d="M8 10C8 10.5523 8.44772 11 9 11C9.55228 11 10 10.5523 10 10H8ZM12 13V12C11.7348 12 11.4804 12.1054 11.2929 12.2929C11.1054 12.4804 11 12.7348 11 13H12ZM11 14C11 14.5523 11.4477 15 12 15C12.5523 15 13 14.5523 13 14H11ZM10 10C10 9.60444 10.1173 9.21776 10.3371 8.88886L8.67412 7.77772C8.2346 8.43552 8 9.20888 8 10H10ZM10.3371 8.88886C10.5568 8.55996 10.8692 8.30362 11.2346 8.15224L10.4693 6.30448C9.73836 6.60723 9.11365 7.11992 8.67412 7.77772L10.3371 8.88886ZM11.2346 8.15224C11.6001 8.00087 12.0022 7.96126 12.3902 8.03843L12.7804 6.07686C12.0044 5.92252 11.2002 6.00173 10.4693 6.30448L11.2346 8.15224ZM12.3902 8.03843C12.7781 8.1156 13.1345 8.30608 13.4142 8.58579L14.8284 7.17158C14.269 6.61216 13.5563 6.2312 12.7804 6.07686L12.3902 8.03843ZM13.4142 8.58579C13.6939 8.86549 13.8844 9.22186 13.9616 9.60982L15.9231 9.21964C15.7688 8.44372 15.3878 7.73099 14.8284 7.17158L13.4142 8.58579ZM13.9616 9.60982C14.0387 9.99778 13.9991 10.3999 13.8478 10.7654L15.6955 11.5307C15.9983 10.7998 16.0775 9.99556 15.9231 9.21964L13.9616 9.60982ZM13.8478 10.7654C13.6964 11.1308 13.44 11.4432 13.1111 11.6629L14.2223 13.3259C14.8801 12.8864 15.3928 12.2616 15.6955 11.5307L13.8478 10.7654ZM13.1111 11.6629C12.7822 11.8827 12.3956 12 12 12V14C12.7911 14 13.5645 13.7654 14.2223 13.3259L13.1111 11.6629ZM11 13V14H13V13H11ZM20 12C20 16.4183 16.4183 20 12 20V22C17.5228 22 22 17.5228 22 12H20ZM12 20C7.58172 20 4 16.4183 4 12H2C2 17.5228 6.47715 22 12 22V20ZM4 12C4 7.58172 7.58172 4 12 4V2C6.47715 2 2 6.47715 2 12H4ZM12 4C16.4183 4 20 7.58172 20 12H22C22 6.47715 17.5228 2 12 2V4Z" fill="currentColor"/>
<circle cx="12" cy="17" r="1" fill="currentColor"/>
</g>
<defs>
<clipPath id="clip0_2422_25993">
<rect width="24" height="24" fill="white"/>
</clipPath>
</defs>
</svg>
