<svg width="24" height="24" viewBox="0 0 24 24" fill="none" xmlns="http://www.w3.org/2000/svg">
<path d="M6 5H18V3H6V5ZM5 9V6H3V9H5ZM19 6V9H21V6H19ZM19 9V14.5H21V9H19ZM19 14.5V18H21V14.5H19ZM5 18V14.5H3V18H5ZM5 14.5V9H3V14.5H5ZM20 13.5H12V15.5H20V13.5ZM12 13.5H4V15.5H12V13.5ZM20 8H12V10H20V8ZM12 8H4V10H12V8ZM6 21H12V19H6V21ZM12 21H18V19H12V21ZM11 9V14.5H13V9H11ZM11 14.5V20H13V14.5H11ZM3 18C3 19.6569 4.34315 21 6 21V19C5.44772 19 5 18.5523 5 18H3ZM19 18C19 18.5523 18.5523 19 18 19V21C19.6569 21 21 19.6569 21 18H19ZM18 5C18.5523 5 19 5.44772 19 6H21C21 4.34315 19.6569 3 18 3V5ZM6 3C4.34315 3 3 4.34315 3 6H5C5 5.44772 5.44772 5 6 5V3Z" fill="currentColor"/>
</svg>
