<svg width="24" height="24" viewBox="0 0 24 24" fill="none" xmlns="http://www.w3.org/2000/svg">
<path d="M5 18V6H3V18H5ZM19 6V18H21V6H19ZM6 5H14V3H6V5ZM14 5H18V3H14V5ZM18 19H14V21H18V19ZM14 19H6V21H14V19ZM13 4V20H15V4H13ZM3 18C3 19.6569 4.34315 21 6 21V19C5.44772 19 5 18.5523 5 18H3ZM19 18C19 18.5523 18.5523 19 18 19V21C19.6569 21 21 19.6569 21 18H19ZM21 6C21 4.34315 19.6569 3 18 3V5C18.5523 5 19 5.44772 19 6H21ZM5 6C5 5.44772 5.44772 5 6 5V3C4.34315 3 3 4.34315 3 6H5Z" fill="currentColor"/>
</svg>
