<svg width="24" height="24" viewBox="0 0 24 24" fill="none" xmlns="http://www.w3.org/2000/svg">
<path d="M9 18H4V20H9V18ZM4 6H9V4H4V6ZM9 6H15V4H9V6ZM15 6H20V4H15V6ZM20 18H15V20H20V18ZM15 18H9V20H15V18ZM20 6V12H22V6H20ZM20 12V18H22V12H20ZM4 18V12H2V18H4ZM4 12V6H2V12H4ZM10 19V12H8V19H10ZM10 12V5H8V12H10ZM21 11H15V13H21V11ZM15 11H3V13H15V11ZM14 5V12H16V5H14ZM14 12V19H16V12H14ZM9 13H15V11H9V13ZM4 18H4H2C2 19.1046 2.89543 20 4 20V18ZM20 20C21.1046 20 22 19.1046 22 18H20V20ZM20 6H22C22 4.89543 21.1046 4 20 4V6ZM4 4C2.89543 4 2 4.89543 2 6H4V6V4Z" fill="currentColor"/>
</svg>
