<svg width="24" height="24" viewBox="0 0 24 24" fill="none" xmlns="http://www.w3.org/2000/svg">
<path d="M5 18V6H3V18H5ZM6 5H9V3H6V5ZM9 5H18V3H9V5ZM6 21H9V19H6V21ZM8 4V11H10V4H8ZM8 11V20H10V11H8ZM19 6V11H21V6H19ZM19 11V18H21V11H19ZM9 12H14.5V10H9V12ZM14.5 12H20V10H14.5V12ZM9 21H14.5V19H9V21ZM14.5 21H18V19H14.5V21ZM13.5 11V20H15.5V11H13.5ZM3 18C3 19.6569 4.34315 21 6 21V19C5.44772 19 5 18.5523 5 18H3ZM19 18C19 18.5523 18.5523 19 18 19V21C19.6569 21 21 19.6569 21 18H19ZM18 5C18.5523 5 19 5.44772 19 6H21C21 4.34315 19.6569 3 18 3V5ZM5 6C5 5.44772 5.44772 5 6 5V3C4.34315 3 3 4.34315 3 6H5Z" fill="currentColor"/>
</svg>
