<svg width="44" height="44" viewBox="0 0 44 44" fill="none" xmlns="http://www.w3.org/2000/svg">
<path d="M38.2609 40.4472H9.01863C4.09938 40.4472 0 36.3478 0 31.4286V9.01863C0 4.09938 4.09938 0 9.01863 0C10.9317 0 12.8447 0.546584 14.4845 1.91304C15.0311 2.45963 15.3043 3.00621 15.3043 3.82609V7.10559H38.2609C39.6273 7.10559 40.4472 8.19876 40.4472 9.29193V38.2609C40.4472 39.354 39.354 40.4472 38.2609 40.4472ZM4.64596 31.4286C4.64596 33.8882 6.55901 35.8012 9.01863 35.8012H35.8012V11.4783H15.3043V26.236C15.3043 27.0559 14.7578 27.8758 13.9379 28.1491C13.118 28.4224 12.2981 28.4224 11.4783 27.8758C10.9317 27.3292 10.1118 27.0559 9.01863 27.0559C6.55901 27.0559 4.64596 28.9689 4.64596 31.4286ZM9.01863 4.64596C6.55901 4.64596 4.64596 6.55901 4.64596 9.01863V23.7764C6.28571 22.6832 8.74534 22.1366 10.9317 22.6832V4.91925C10.3851 4.64596 9.56522 4.64596 9.01863 4.64596Z" fill="currentColor"/>
<path d="M30.0621 42.6335C23.2299 42.6335 17.4907 36.8944 17.4907 30.0621C17.4907 23.2298 23.2299 17.4907 30.0621 17.4907C36.8944 17.4907 42.6336 23.2298 42.6336 30.0621C42.6336 36.8944 36.8944 42.6335 30.0621 42.6335Z" fill="white"/>
<path d="M30.0619 18.8572C36.3476 18.8572 41.2669 23.7764 41.2669 30.0621C41.2669 36.3478 36.3476 41.2671 30.0619 41.2671C23.7762 41.2671 18.8569 36.3478 18.8569 30.0621C18.8569 23.7764 23.7762 18.8572 30.0619 18.8572ZM30.0619 16.1242C22.4097 16.1242 16.124 22.41 16.124 30.0621C16.124 37.7143 22.4097 44 30.0619 44C37.7141 44 43.9998 37.7143 43.9998 30.0621C43.9998 22.41 37.7141 16.1242 30.0619 16.1242Z" fill="currentColor"/>
<path d="M35.5278 37.1677H25.9626C24.5961 37.1677 23.5029 36.0746 23.5029 34.7081V25.1429C23.5029 23.7764 24.5961 22.6833 25.9626 22.6833H32.5216C33.0681 22.6833 33.888 22.9566 34.1613 23.5031L37.1675 26.5093C37.7141 27.0559 37.9874 27.6025 37.9874 28.1491V34.7081C37.9874 36.0746 36.8942 37.1677 35.5278 37.1677ZM25.9626 24.323C25.416 24.323 25.1427 24.5963 25.1427 25.1429V34.7081C25.1427 35.2547 25.416 35.528 25.9626 35.528H35.5278C36.0744 35.528 36.3476 35.2547 36.3476 34.7081V28.1491C36.3476 27.8758 36.3476 27.6025 36.0744 27.6025L33.0681 24.5963C32.7949 24.323 32.7949 24.323 32.5216 24.323H25.9626Z" fill="currentColor"/>
<path d="M30.6087 27.6025H28.149C27.3292 27.6025 26.5093 26.7826 26.5093 25.9628V23.5031C26.5093 22.9566 26.7826 22.6833 27.3292 22.6833H31.4285C31.9751 22.6833 32.2484 22.9566 32.2484 23.5031V25.9628C32.2484 26.7826 31.7018 27.6025 30.6087 27.6025ZM28.4223 24.323V25.9628H30.8819V24.323H28.4223Z" fill="currentColor"/>
<path d="M34.7077 37.1677H26.7823C26.2357 37.1677 25.9624 36.8944 25.9624 36.3478V32.2484C25.9624 30.882 27.0556 29.7888 28.422 29.7888H33.3413C34.7077 29.7888 35.8009 30.882 35.8009 32.2484V36.3478C35.5276 36.6211 35.2543 37.1677 34.7077 37.1677ZM27.6022 35.5279H33.8879V32.2484C33.8879 31.7019 33.6146 31.4286 33.068 31.4286H28.1487C27.6022 31.4286 27.3289 31.7019 27.3289 32.2484V35.5279H27.6022Z" fill="currentColor"/>
</svg>
