<svg width="44" height="44" viewBox="0 0 44 44" fill="none" xmlns="http://www.w3.org/2000/svg">
<path d="M38.5882 41H9.11111C4.01961 41 0 36.9804 0 31.8889V9.11111C0 4.01961 4.01961 0 9.11111 0C11.2549 0 13.1307 0.535948 14.7386 1.87582C15.2745 2.41176 15.5425 2.94771 15.5425 3.75163V7.23529H38.8562C40.1961 7.23529 41 8.30719 41 9.37908V38.8562C41 39.9281 39.9281 41 38.5882 41ZM4.55556 31.8889C4.55556 34.3007 6.69935 36.4444 9.11111 36.4444H36.4444V11.5229H15.5425V26.5294C15.5425 27.3333 15.0065 28.1373 14.2026 28.4052C13.3987 28.6732 12.5948 28.6732 11.7908 28.1373C10.9869 27.6013 9.91503 27.0654 8.84314 27.0654C6.43137 27.3333 4.55556 29.2091 4.55556 31.8889ZM9.11111 4.55556C6.69935 4.55556 4.55556 6.69935 4.55556 9.11111V24.1176C6.43137 23.0458 8.84314 22.5098 10.9869 23.0458V4.82353C10.451 4.55556 9.64706 4.55556 9.11111 4.55556Z" fill="currentColor"/>
<path d="M31.3529 24.6536H17.9542C17.4183 24.6536 16.8823 24.1176 16.8823 23.5817C16.8823 23.0457 17.4183 22.5098 17.9542 22.5098H31.3529C31.8889 22.5098 32.4248 23.0457 32.4248 23.5817C32.4248 24.3856 31.8889 24.6536 31.3529 24.6536Z" fill="currentColor"/>
<path d="M20.902 27.0654H31.353C31.8889 27.0654 32.4248 27.6013 32.4248 28.1373C32.4248 28.6732 31.8889 29.2092 31.353 29.2092H20.902C20.366 29.2092 19.8301 28.6732 19.8301 28.1373C19.8301 27.6013 20.366 27.0654 20.902 27.0654Z" fill="currentColor"/>
<path d="M14.2023 31.6209H31.3526C31.8885 31.6209 32.4245 32.1569 32.4245 32.6928C32.4245 33.2288 31.8885 33.7647 31.3526 33.7647H14.2023C13.6663 33.7647 13.1304 33.2288 13.1304 32.6928C13.1304 31.8889 13.6663 31.6209 14.2023 31.6209Z" fill="currentColor"/>
</svg>
