<svg width="24" height="24" viewBox="0 0 24 24" fill="none" xmlns="http://www.w3.org/2000/svg">
<path d="M15.7931 12.2759H16.4828V11.5862H15.7931V12.2759ZM15.7931 17.7931H15.1034H15.7931ZM18.5517 17.7931H17.8621H18.5517ZM18.5517 12.2759V11.5862H17.8621V12.2759H18.5517ZM13.0345 10.8966C13.0345 10.5157 13.3433 10.2069 13.7242 10.2069V8.82759C12.5815 8.82759 11.6552 9.75389 11.6552 10.8966H13.0345ZM13.7242 11.5862C13.3433 11.5862 13.0345 11.2774 13.0345 10.8966H11.6552C11.6552 12.0392 12.5815 12.9655 13.7242 12.9655V11.5862ZM15.7931 11.5862H13.7242V12.9655H15.7931V11.5862ZM16.4828 17.7931L16.4828 12.2759H15.1034L15.1034 17.7931H16.4828ZM17.1724 18.4828C16.7915 18.4828 16.4828 18.174 16.4828 17.7931H15.1034C15.1034 18.9358 16.0298 19.8621 17.1724 19.8621V18.4828ZM17.8621 17.7931C17.8621 18.174 17.5533 18.4828 17.1724 18.4828V19.8621C18.3151 19.8621 19.2414 18.9358 19.2414 17.7931H17.8621ZM17.8621 12.2759L17.8621 17.7931H19.2414L19.2414 12.2759H17.8621ZM20.6207 11.5862H18.5517V12.9655H20.6207V11.5862ZM21.3104 10.8966C21.3104 11.2774 21.0016 11.5862 20.6207 11.5862V12.9655C21.7634 12.9655 22.6897 12.0392 22.6897 10.8966H21.3104ZM20.6207 10.2069C21.0016 10.2069 21.3104 10.5157 21.3104 10.8966H22.6897C22.6897 9.7539 21.7634 8.82759 20.6207 8.82759V10.2069ZM17.1724 10.2069H20.6207V8.82759H17.1724V10.2069ZM13.7242 10.2069H17.1724V8.82759H13.7242V10.2069Z" fill="currentColor"/>
<path d="M6.82759 7.44828H7.51724V6.75862H6.82759V7.44828ZM6.82759 17.4483H6.13793H6.82759ZM10.2759 17.4483H9.58621H10.2759ZM10.2759 7.44828V6.75862H9.58621V7.44828H10.2759ZM2.68966 5.72414C2.68966 5.15281 3.15281 4.68966 3.72414 4.68966V3.31034C2.39104 3.31034 1.31034 4.39104 1.31034 5.72414H2.68966ZM3.72414 6.75862C3.15281 6.75862 2.68966 6.29547 2.68966 5.72414H1.31034C1.31034 7.05724 2.39104 8.13793 3.72414 8.13793V6.75862ZM6.82759 6.75862H3.72414V8.13793H6.82759V6.75862ZM7.51724 17.4483L7.51724 7.44828H6.13793L6.13793 17.4483H7.51724ZM8.55172 18.4828C7.98039 18.4828 7.51724 18.0196 7.51724 17.4483H6.13793C6.13793 18.7814 7.21862 19.8621 8.55172 19.8621V18.4828ZM9.58621 17.4483C9.58621 18.0196 9.12305 18.4828 8.55172 18.4828V19.8621C9.88482 19.8621 10.9655 18.7814 10.9655 17.4483H9.58621ZM9.58621 7.44828L9.58621 17.4483H10.9655L10.9655 7.44828H9.58621ZM13.3793 6.75862H10.2759V8.13793H13.3793V6.75862ZM14.4138 5.72414C14.4138 6.29547 13.9506 6.75862 13.3793 6.75862V8.13793C14.7124 8.13793 15.7931 7.05724 15.7931 5.72414H14.4138ZM13.3793 4.68966C13.9506 4.68966 14.4138 5.15281 14.4138 5.72414H15.7931C15.7931 4.39104 14.7124 3.31034 13.3793 3.31034V4.68966ZM3.72414 4.68966H13.3793V3.31034H3.72414V4.68966Z" fill="currentColor"/>
</svg>
