<svg width="24" height="24" viewBox="0 0 24 24" fill="none" xmlns="http://www.w3.org/2000/svg">
<path d="M19 5V19H21V5H19ZM5 19V5H3V19H5ZM9.33333 19H5V21H9.33333V19ZM5 5H9.33333V3H5V5ZM10.3333 20V4H8.33333V20H10.3333ZM9.33333 5H14.6667V3H9.33333V5ZM14.6667 5H19V3H14.6667V5ZM19 19H14.6667V21H19V19ZM14.6667 19H9.33333V21H14.6667V19ZM13.6667 4V20H15.6667V4H13.6667ZM3 19C3 20.1046 3.89543 21 5 21V19L5 19H3ZM19 19V19V21C20.1046 21 21 20.1046 21 19H19ZM21 5C21 3.89543 20.1046 3 19 3V5H19H21ZM5 5V3C3.89543 3 3 3.89543 3 5H5Z" fill="currentColor"/>
</svg>
