<svg width="24" height="24" viewBox="0 0 24 24" fill="none" xmlns="http://www.w3.org/2000/svg">
<path d="M6 4V5V4ZM4 6H3H4ZM6 20V21V20ZM4 18H5H4ZM18 20V19V20ZM20 18H21H20ZM18 4V3V4ZM20 6H19H20ZM6 5L18 5V3L6 3V5ZM18 19H6V21H18V19ZM19 6V12H21V6H19ZM19 12V18H21V12H19ZM5 18L5 12H3L3 18H5ZM5 12L5 6H3L3 12H5ZM20 11L4 11L4 13L20 13V11ZM6 3C4.34315 3 3 4.34315 3 6H5C5 5.44772 5.44772 5 6 5V3ZM6 19C5.44772 19 5 18.5523 5 18H3C3 19.6569 4.34315 21 6 21V19ZM18 21C19.6569 21 21 19.6569 21 18H19C19 18.5523 18.5523 19 18 19V21ZM18 5C18.5523 5 19 5.44772 19 6H21C21 4.34315 19.6569 3 18 3V5Z" fill="currentColor"/>
</svg>
