<svg width="24" height="24" viewBox="0 0 24 24" fill="none" xmlns="http://www.w3.org/2000/svg">
<path d="M11 3L11 4L11 4L11 3ZM13.4258 3L13.4258 2L13.4258 2L13.4258 3ZM8 9.00001V10L8 10L8 9.00001ZM15 5.57422C15 6.1265 15.4477 6.57422 16 6.57422C16.5523 6.57422 17 6.1265 17 5.57422H15ZM13 14C13 13.4477 12.5523 13 12 13C11.4477 13 11 13.4477 11 14H13ZM11 17C11 17.5523 11.4477 18 12 18C12.5523 18 13 17.5523 13 17H11ZM16 9V8L16 8L16 9ZM8 10L16 10L16 8L8 8.00001L8 10ZM18 12V18H20V12H18ZM16 20H8V22H16V20ZM6 18V12H4V18H6ZM11 4L13.4258 4L13.4258 2L11 2L11 4ZM9 9.00001V6H7V9.00001H9ZM13.4258 4C14.2952 4 15 4.7048 15 5.57422H17C17 3.60023 15.3998 2 13.4258 2V4ZM11 2C8.79086 2 7 3.79086 7 6H9C9 4.89543 9.89543 4 11 4L11 2ZM12 14V16C13.1046 16 14 15.1046 14 14H12ZM12 14H10C10 15.1046 10.8954 16 12 16V14ZM12 14V12C10.8954 12 10 12.8954 10 14H12ZM12 14H14C14 12.8954 13.1046 12 12 12V14ZM11 14V17H13V14H11ZM8 20C6.89543 20 6 19.1046 6 18H4C4 20.2091 5.79086 22 8 22V20ZM18 18C18 19.1046 17.1046 20 16 20V22C18.2091 22 20 20.2091 20 18H18ZM16 10C17.1046 10 18 10.8954 18 12H20C20 9.79086 18.2091 8 16 8V10ZM8 8.00001C5.79086 8.00001 4 9.79086 4 12H6C6 10.8954 6.89543 10 8 10V8.00001Z" fill="currentColor"/>
</svg>
