<svg width="24" height="24" viewBox="0 0 24 24" fill="none" xmlns="http://www.w3.org/2000/svg">
<path d="M6.79998 17.2C6.79998 17.6418 7.15815 18 7.59998 18C8.0418 18 8.39998 17.6418 8.39998 17.2H6.79998ZM16.4 17.2C16.4 17.6418 16.7581 18 17.2 18C17.6418 18 18 17.6418 18 17.2H16.4ZM17.2 10C16.7581 10 16.4 10.3582 16.4 10.8C16.4 11.2418 16.7581 11.6 17.2 11.6V10ZM17.2 5.2C16.7581 5.2 16.4 5.55817 16.4 6C16.4 6.44183 16.7581 6.8 17.2 6.8V5.2ZM21.2 17.2C21.2 17.6418 21.5581 18 22 18C22.4418 18 22.8 17.6418 22.8 17.2H21.2ZM18.4 12.4C17.9581 12.4 17.6 12.7582 17.6 13.2C17.6 13.6418 17.9581 14 18.4 14V12.4ZM8.39998 17.2V16.4H6.79998V17.2H8.39998ZM10.8 14H14V12.4H10.8V14ZM16.4 16.4V17.2H18V16.4H16.4ZM14 8.4C14 9.28366 13.2836 10 12.4 10V11.6C14.1673 11.6 15.6 10.1673 15.6 8.4H14ZM12.4 10C11.5163 10 10.8 9.28366 10.8 8.4H9.19998C9.19998 10.1673 10.6327 11.6 12.4 11.6V10ZM10.8 8.4C10.8 7.51634 11.5163 6.8 12.4 6.8V5.2C10.6327 5.2 9.19998 6.63269 9.19998 8.4H10.8ZM12.4 6.8C13.2836 6.8 14 7.51634 14 8.4H15.6C15.6 6.63269 14.1673 5.2 12.4 5.2V6.8ZM18.8 8.4C18.8 9.28366 18.0836 10 17.2 10V11.6C18.9673 11.6 20.4 10.1673 20.4 8.4H18.8ZM17.2 6.8C18.0836 6.8 18.8 7.51634 18.8 8.4H20.4C20.4 6.63269 18.9673 5.2 17.2 5.2V6.8ZM21.2 16.4V17.2H22.8V16.4H21.2ZM18.4 14H18.8V12.4H18.4V14ZM22.8 16.4C22.8 14.1909 21.0091 12.4 18.8 12.4V14C20.1255 14 21.2 15.0745 21.2 16.4H22.8ZM14 14C15.3255 14 16.4 15.0745 16.4 16.4H18C18 14.1909 16.2091 12.4 14 12.4V14ZM8.39998 16.4C8.39998 15.0745 9.47449 14 10.8 14V12.4C8.59084 12.4 6.79998 14.1909 6.79998 16.4H8.39998Z" fill="currentColor"/>
<path d="M6.80005 10C7.24188 10 7.60005 10.3582 7.60005 10.8C7.60005 11.2418 7.24188 11.6 6.80005 11.6V10ZM6.80005 5.2C7.24188 5.2 7.60005 5.55817 7.60005 6C7.60005 6.44183 7.24188 6.8 6.80005 6.8V5.2ZM2.80005 17.2C2.80005 17.6418 2.44188 18 2.00005 18C1.55822 18 1.20005 17.6418 1.20005 17.2H2.80005ZM5.20005 12.4C5.64188 12.4 6.00005 12.7582 6.00005 13.2C6.00005 13.6418 5.64188 14 5.20005 14V12.4ZM5.20005 8.4C5.20005 9.28366 5.91639 10 6.80005 10V11.6C5.03274 11.6 3.60005 10.1673 3.60005 8.4H5.20005ZM6.80005 6.8C5.91639 6.8 5.20005 7.51634 5.20005 8.4H3.60005C3.60005 6.63269 5.03274 5.2 6.80005 5.2V6.8ZM2.80005 16.4V17.2H1.20005V16.4H2.80005ZM1.20005 16.4C1.20005 14.1909 2.99091 12.4 5.20005 12.4V14C3.87457 14 2.80005 15.0745 2.80005 16.4H1.20005Z" fill="currentColor"/>
</svg>
