<svg width="24" height="24" viewBox="0 0 24 24" fill="none" xmlns="http://www.w3.org/2000/svg">
<path d="M19 6V12H21V6H19ZM19 12V18H21V12H19ZM5 18V12H3V18H5ZM5 12V6H3V12H5ZM20 11H12V13H20V11ZM12 11H4V13H12V11ZM6 5H12V3H6V5ZM12 5H18V3H12V5ZM18 19H12V21H18V19ZM11 4V12H13V4H11ZM11 12V20H13V12H11ZM6 19C5.44772 19 5 18.5523 5 18H3C3 19.6569 4.34315 21 6 21V19ZM19 18C19 18.5523 18.5523 19 18 19V21C19.6569 21 21 19.6569 21 18H19ZM21 6C21 4.34315 19.6569 3 18 3V5C18.5523 5 19 5.44772 19 6H21ZM5 6C5 5.44772 5.44772 5 6 5V3C4.34315 3 3 4.34315 3 6H5ZM12 19H6V21H12V19Z" fill="currentColor"/>
</svg>
